<?xml version="1.0" encoding="utf-8"?>
<!-- Generator: Adobe Illustrator 23.0.3, SVG Export Plug-In . SVG Version: 6.00 Build 0)  -->
<svg version="1.1" id="Calque_1" xmlns="http://www.w3.org/2000/svg" xmlns:xlink="http://www.w3.org/1999/xlink" x="0px" y="0px"
	 viewBox="0 0 60 60" style="enable-background:new 0 0 60 60;" xml:space="preserve">
<style type="text/css">
	.st0{fill:#10BF00;}
</style>
<g>
	<g>
		<path class="st0" d="M23.33,16.62c1.08-2.72,3.91-6.45,7.05-6.93c-0.49-0.13-0.97-0.26-1.46-0.39c0.7,0.73,0.49,3.58,0.54,4.58
			c0.1,1.92,3.1,1.93,3,0c-0.09-1.88,0.1-4.51-0.96-6.16c-0.98-1.53-2.51-0.83-3.8-0.16c-3.4,1.76-5.86,4.75-7.26,8.26
			C19.72,17.61,22.62,18.39,23.33,16.62L23.33,16.62z"/>
	</g>
</g>
<g>
	<g>
		<path class="st0" d="M21.67,19.22c1.85,0.32,3.71,0.61,5.57,0.86c0.81,0.11,1.6-0.2,1.85-1.05c0.2-0.7-0.25-1.74-1.05-1.85
			c-1.86-0.25-3.72-0.54-5.57-0.86C20.58,16,19.77,18.89,21.67,19.22L21.67,19.22z"/>
	</g>
</g>
<g>
	<g>
		<path class="st0" d="M31.9,13.81c-4.84,4.99-9.16,10.01-11.72,16.56c-3.26,8.33-8.05,15.7-12.33,23.51
			c-0.93,1.69,1.66,3.21,2.59,1.51c3.73-6.82,8.1-13.34,11.16-20.51c3.17-7.44,6.75-13.12,12.42-18.96
			C35.36,14.54,33.24,12.42,31.9,13.81L31.9,13.81z"/>
	</g>
</g>
<g>
	<g>
		<path class="st0" d="M32.57,16.41c0.88,0.77,1.72,1.58,2.5,2.44c2.49,1.42,2.64,2.79,0.45,4.13c-1.03,1.05-2.21,1.92-3.34,2.85
			c-3.13,2.59-6.13,5.26-8.6,8.5c-2.15,2.81-3.81,5.93-5.51,9.02c-0.9,1.63-1.78,3.27-2.78,4.84c-0.62,0.97-3.09,5.63-4.41,5.71
			c-1.92,0.13-1.93,3.13,0,3c3.1-0.2,5.51-4.85,7-7.2c3.4-5.37,5.82-11.25,10.13-16.01c3.17-3.51,9.89-6.67,11.68-11.15
			c1.3-3.25-2.92-6.33-5.01-8.25C33.27,12.99,31.14,15.1,32.57,16.41L32.57,16.41z"/>
	</g>
</g>
<g>
	<g>
		<path class="st0" d="M39.66,24.44c4.3-0.73,8.62-1.3,12.96-1.71c1.91-0.18,1.92-3.18,0-3c-4.61,0.43-9.19,1.04-13.76,1.82
			C36.97,21.87,37.77,24.76,39.66,24.44L39.66,24.44z"/>
	</g>
</g>
<g>
	<g>
		<path class="st0" d="M51.28,21.87c1.5,4.16,0.12,7.84-1.07,11.85c-0.37,1.24-0.57,2.98-1.11,4.17c-1.17,2.57-4.02,3.52-6.5,4.04
			c-1.89,0.4-1.09,3.29,0.8,2.89c4.28-0.91,7.6-2.92,8.83-7.18c1.58-5.44,3.97-10.95,1.95-16.57
			C53.53,19.27,50.63,20.05,51.28,21.87L51.28,21.87z"/>
	</g>
</g>
<g>
	<g>
		<path class="st0" d="M43.71,42.05c-2.16-1.65-5.09-3.21-6.38-5.66c-1.24-2.36-1.54-5.37-1.93-7.97c-0.29-1.9-3.18-1.09-2.89,0.8
			c0.48,3.2,0.9,7.02,2.84,9.72c1.67,2.34,4.6,3.98,6.85,5.7C43.73,45.82,45.23,43.21,43.71,42.05L43.71,42.05z"/>
	</g>
</g>
</svg>
