<?xml version="1.0" encoding="utf-8"?>
<!-- Generator: Adobe Illustrator 23.0.3, SVG Export Plug-In . SVG Version: 6.00 Build 0)  -->
<svg version="1.1" id="Calque_1" xmlns="http://www.w3.org/2000/svg" xmlns:xlink="http://www.w3.org/1999/xlink" x="0px" y="0px"
	 viewBox="0 0 60 60" style="enable-background:new 0 0 60 60;" xml:space="preserve">
<style type="text/css">
	.st0{fill:none;stroke:#10BF00;stroke-miterlimit:10;}
	.st1{fill:#10BF00;}
</style>
<path class="st0" d="M25.17,12.45"/>
<g>
	<g>
		<path class="st1" d="M40.39,7.78c0.84,7.43,0.19,14.76-0.46,22.18c-0.64,7.36-0.77,14.68-0.7,22.07c0.02,1.93,3.02,1.93,3,0
			c-0.07-7.39,0.06-14.71,0.7-22.07c0.65-7.41,1.3-14.75,0.46-22.18C43.18,5.88,40.17,5.86,40.39,7.78L40.39,7.78z"/>
	</g>
</g>
<g>
	<g>
		<path class="st1" d="M40.89,8.07c-5.37-0.72-11.86,0.81-16.72,3.02c-5.97,2.71-9.3,7.37-12.41,12.94
			c-0.94,1.69,1.65,3.2,2.59,1.51c2.96-5.3,6.13-9.7,11.94-12.08c4.4-1.8,9.87-3.04,14.61-2.4C42.8,11.32,42.78,8.32,40.89,8.07
			L40.89,8.07z"/>
	</g>
</g>
<g>
	<g>
		<path class="st1" d="M10.71,26.43c-0.03,6.08,4.16,14.27,9.03,17.95c4.62,3.49,14.02,8.16,19.92,7.31c1.9-0.27,1.09-3.16-0.8-2.89
			c-4.52,0.65-11.71-3.41-15.47-5.63c-5-2.95-9.72-10.87-9.68-16.74C13.72,24.5,10.72,24.5,10.71,26.43L10.71,26.43z"/>
	</g>
</g>
<g>
	<g>
		<path class="st1" d="M12.56,28.17c12.91,0.5,25.82,0.93,38.74,1.29c1.93,0.05,1.93-2.95,0-3c-12.91-0.36-25.83-0.79-38.74-1.29
			C10.63,25.1,10.63,28.1,12.56,28.17L12.56,28.17z"/>
	</g>
</g>
<g>
	<g>
		<path class="st1" d="M13.19,24.98c-2.05-0.03-4.11-0.05-6.16-0.08c-1.93-0.02-1.93,2.97,0,3c2.05,0.03,4.11,0.05,6.16,0.08
			C15.12,28.01,15.12,25.01,13.19,24.98L13.19,24.98z"/>
	</g>
</g>
<g>
	<g>
		<path class="st1" d="M10.61,19.2c-3.44,1.08-5.58,3.4-7.94,5.99c-1.3,1.43,0.82,3.55,2.12,2.12c1.97-2.16,3.73-4.31,6.61-5.22
			C13.24,21.52,12.46,18.62,10.61,19.2L10.61,19.2z"/>
	</g>
</g>
<g>
	<g>
		<path class="st1" d="M2.93,27.83c0.67,0.72,1.62,1.1,2.21,1.89c0.67,0.9,1.27,1.86,1.9,2.78c1.08,1.59,3.68,0.09,2.59-1.51
			c-0.69-1.02-1.36-2.06-2.09-3.05c-0.69-0.94-1.71-1.4-2.48-2.23C3.73,24.3,1.62,26.42,2.93,27.83L2.93,27.83z"/>
	</g>
</g>
<g>
	<g>
		<path class="st1" d="M49.52,28.05c0.58-1.06,2.03-1.93,3-2.6c1.11-0.76,2.22-1.49,3.25-2.36c1.48-1.24-0.65-3.35-2.12-2.12
			c-2.11,1.77-5.35,3.06-6.72,5.56C46,28.23,48.59,29.74,49.52,28.05L49.52,28.05z"/>
	</g>
</g>
<g>
	<g>
		<path class="st1" d="M48.5,30.79c1.98,1.51,3.87,3.12,5.69,4.81c1.41,1.31,3.54-0.81,2.12-2.12c-2.01-1.86-4.12-3.61-6.3-5.28
			c-0.65-0.49-1.67-0.1-2.05,0.54C47.5,29.51,47.86,30.3,48.5,30.79L48.5,30.79z"/>
	</g>
</g>
</svg>
