<?xml version="1.0" encoding="utf-8"?>
<!-- Generator: Adobe Illustrator 23.0.3, SVG Export Plug-In . SVG Version: 6.00 Build 0)  -->
<svg version="1.1" id="Calque_1" xmlns="http://www.w3.org/2000/svg" xmlns:xlink="http://www.w3.org/1999/xlink" x="0px" y="0px"
	 viewBox="0 0 60 60" style="enable-background:new 0 0 60 60;" xml:space="preserve">
<style type="text/css">
	.st0{fill:#10BF00;}
</style>
<g>
	<g>
		<path class="st0" d="M21.86,26.42c2.1-2.01,20.75-13.94,22.62-11.69c2.42,2.91-15.9,12.79-18.32,14.06
			c-1.71,0.89-0.2,3.48,1.51,2.59c3.28-1.71,25.82-13.06,20.24-18.79c-2.92-3.01-9.68,0.76-12.42,2.19
			c-5.29,2.76-11.39,5.36-15.75,9.52C18.34,25.63,20.46,27.75,21.86,26.42L21.86,26.42z"/>
	</g>
</g>
<g>
	<g>
		<path class="st0" d="M21.03,24.32c-2.25-2.11-4.87-6.45-8.55-4c-3.24,2.17-0.84,7.08,1.15,9.22c1.32,1.42,3.43-0.71,2.12-2.12
			c-0.67-0.73-3.16-4.71-0.91-4.75c1.56-0.03,3.07,2.83,4.07,3.77C20.31,27.77,22.44,25.65,21.03,24.32L21.03,24.32z"/>
	</g>
</g>
<g>
	<g>
		<path class="st0" d="M22.55,34.72c0.24,2.12,1.18,4.13,3.08,5.27c1.76,1.05,3.95,0.94,5.35-0.64c2.8-3.15,0.67-9.33-3.03-10.67
			c-1.82-0.66-2.6,2.24-0.8,2.89c1.58,0.57,2.4,3.55,1.93,5.08c-0.82,2.64-3.36-0.45-3.52-1.94C25.34,32.83,22.34,32.8,22.55,34.72
			L22.55,34.72z"/>
	</g>
</g>
<g>
	<g>
		<path class="st0" d="M11.27,28.59c-1.31,2.47-3.19,4.55-4.11,7.23c-0.58,1.68-1.36,4.27,0.07,5.74c1.58,1.62,4.48-0.1,6.17-0.7
			c3.19-1.13,6.36-2.32,9.51-3.56c1.78-0.7,1-3.6-0.8-2.89c-3.82,1.49-7.66,2.92-11.53,4.26c-0.5,0.18-1.01,0.35-1.52,0.52
			c0.16-0.24,0.32-0.48,0.48-0.72c0.11-1.04,0.66-2.37,1.11-3.27c0.91-1.8,2.26-3.32,3.2-5.1C14.76,28.4,12.17,26.89,11.27,28.59
			L11.27,28.59z"/>
	</g>
</g>
</svg>
