<?xml version="1.0" encoding="utf-8"?>
<!-- Generator: Adobe Illustrator 23.0.3, SVG Export Plug-In . SVG Version: 6.00 Build 0)  -->
<svg version="1.1" xmlns="http://www.w3.org/2000/svg" xmlns:xlink="http://www.w3.org/1999/xlink" x="0px" y="0px"
	 viewBox="0 0 60 60" style="enable-background:new 0 0 60 60;" xml:space="preserve">
<style type="text/css">
	.st0{fill:#E1D7CD;}
	.st1{fill:#57524F;}
	.st2{fill:#30556F;}
	.st3{fill:#675348;}
	.st4{fill:#B8934C;}
</style>
<g id="Calque_5">
	<g>
		<g>
			<path class="st0" d="M18.68,7.2c0.74,1.41,1.48,2.82,2.22,4.23c0.22,0.43,0.87,0.05,0.65-0.38c-0.74-1.41-1.48-2.82-2.22-4.23
				C19.1,6.4,18.45,6.78,18.68,7.2L18.68,7.2z"/>
		</g>
	</g>
	<g>
		<g>
			<path class="st0" d="M20.8,11.21c0.22,0.39,0.44,0.78,0.65,1.17c0.24,0.42,0.88,0.04,0.65-0.38c-0.22-0.39-0.44-0.78-0.65-1.17
				C21.22,10.41,20.57,10.79,20.8,11.21L20.8,11.21z"/>
		</g>
	</g>
	<g>
		<g>
			<path class="st0" d="M18.95,7.3c0.48,0,0.48-0.75,0-0.75C18.47,6.55,18.47,7.3,18.95,7.3L18.95,7.3z"/>
		</g>
	</g>
	<g>
		<g>
			<path class="st0" d="M18.95,7.28c0.48,0,0.48-0.75,0-0.75C18.47,6.53,18.47,7.28,18.95,7.28L18.95,7.28z"/>
		</g>
	</g>
	<g>
		<g>
			<path class="st0" d="M18.87,7.3c0.48,0,0.48-0.75,0-0.75C18.38,6.55,18.38,7.3,18.87,7.3L18.87,7.3z"/>
		</g>
	</g>
</g>
<g id="Calque_3">
	<g>
		<g>
			<path class="st1" d="M21.19,11.71c3.36,6.14,6.72,12.28,10.08,18.42c0.23,0.42,0.88,0.05,0.65-0.38
				c-3.36-6.14-6.72-12.28-10.08-18.42C21.61,10.91,20.96,11.29,21.19,11.71L21.19,11.71z"/>
		</g>
	</g>
	<g>
		<g>
			<path class="st1" d="M21.1,11.35c-1.26,2.76-1.5,5.69-0.68,8.61c0.13,0.46,0.85,0.27,0.72-0.2c-0.77-2.72-0.57-5.45,0.6-8.03
				C21.95,11.29,21.3,10.91,21.1,11.35L21.1,11.35z"/>
		</g>
	</g>
	<g>
		<g>
			<path class="st1" d="M20.29,19.79c0.76,2.1,1.53,4.2,2.29,6.3c0.16,0.45,0.89,0.26,0.72-0.2c-0.76-2.1-1.53-4.2-2.29-6.3
				C20.85,19.14,20.13,19.33,20.29,19.79L20.29,19.79z"/>
		</g>
	</g>
	<g>
		<g>
			<path class="st1" d="M22.52,25.8c0.81,1.97,1.62,3.93,2.42,5.9c0.18,0.44,0.91,0.25,0.72-0.2c-0.81-1.97-1.62-3.93-2.42-5.9
				C23.06,25.16,22.33,25.35,22.52,25.8L22.52,25.8z"/>
		</g>
	</g>
	<g>
		<g>
			<path class="st1" d="M25.52,31.95c1.24,0.13,1.67,1.53,1.96,2.54c0.14,0.46,0.86,0.27,0.72-0.2c-0.41-1.4-1.04-2.92-2.69-3.09
				C25.04,31.15,25.04,31.9,25.52,31.95L25.52,31.95z"/>
		</g>
	</g>
	<g>
		<g>
			<path class="st1" d="M31.12,30.02c0.33,0.64,0.67,1.28,1,1.91c0.22,0.43,0.87,0.05,0.65-0.38c-0.33-0.64-0.67-1.28-1-1.91
				C31.54,29.21,30.9,29.59,31.12,30.02L31.12,30.02z"/>
		</g>
	</g>
	<g>
		<g>
			<path class="st1" d="M27.44,34.28c0.14,0.52,0.27,1.05,0.41,1.57c0.12,0.47,0.85,0.27,0.72-0.2c-0.14-0.52-0.27-1.05-0.41-1.57
				C28.04,33.61,27.32,33.81,27.44,34.28L27.44,34.28z"/>
		</g>
	</g>
	<g>
		<g>
			<path class="st1" d="M21.19,12.93c0.9,1.66,1.81,3.33,2.71,4.99c0.23,0.42,0.88,0.05,0.65-0.38c-0.9-1.66-1.81-3.33-2.71-4.99
				C21.61,12.13,20.96,12.51,21.19,12.93L21.19,12.93z"/>
		</g>
	</g>
	<g>
		<g>
			<path class="st1" d="M21.14,13.05c0.83,1.41,1.65,2.83,2.48,4.24c0.24,0.42,0.89,0.04,0.65-0.38c-0.83-1.41-1.65-2.83-2.48-4.24
				C21.54,12.25,20.89,12.63,21.14,13.05L21.14,13.05z"/>
		</g>
	</g>
	<g>
		<g>
			<path class="st1" d="M23.42,17.05c-0.54,1.16-1.15,2.28-1.85,3.36c-0.26,0.41,0.39,0.78,0.65,0.38c0.69-1.08,1.31-2.2,1.85-3.36
				C24.27,16.99,23.62,16.61,23.42,17.05L23.42,17.05z"/>
		</g>
	</g>
	<g>
		<g>
			<path class="st1" d="M23.86,17.44c-0.58,0.98-1.17,1.97-1.75,2.95c-0.25,0.42,0.4,0.79,0.65,0.38c0.58-0.98,1.17-1.97,1.75-2.95
				C24.75,17.41,24.1,17.03,23.86,17.44L23.86,17.44z"/>
		</g>
	</g>
	<g>
		<g>
			<path class="st1" d="M21.32,20.76c0.61,1.41,1.21,2.81,1.82,4.22c0.19,0.44,0.84,0.06,0.65-0.38c-0.61-1.41-1.21-2.81-1.82-4.22
				C21.77,19.94,21.13,20.33,21.32,20.76L21.32,20.76z"/>
		</g>
	</g>
	<g>
		<g>
			<path class="st1" d="M21.85,21.19c0.52,1.21,1.04,2.42,1.56,3.63c0.19,0.44,0.84,0.06,0.65-0.38c-0.52-1.21-1.04-2.42-1.56-3.63
				C22.3,20.37,21.66,20.75,21.85,21.19L21.85,21.19z"/>
		</g>
	</g>
	<g>
		<g>
			<path class="st1" d="M20.99,13.3c-0.47,1.25-0.54,2.56-0.24,3.86c0.11,0.47,0.83,0.27,0.72-0.2c-0.28-1.18-0.19-2.34,0.24-3.47
				C21.88,13.04,21.16,12.85,20.99,13.3L20.99,13.3z"/>
		</g>
	</g>
	<g>
		<g>
			<path class="st1" d="M20.65,16.43c-0.09,1.47,0.07,2.91,0.5,4.33c0.14,0.46,0.86,0.26,0.72-0.2c-0.41-1.35-0.57-2.72-0.48-4.13
				C21.43,15.94,20.68,15.95,20.65,16.43L20.65,16.43z"/>
		</g>
	</g>
	<g>
		<g>
			<path class="st1" d="M20.95,13.67c-0.53,2.3-0.21,4.59,0.95,6.66c0.24,0.42,0.88,0.04,0.65-0.38c-1.06-1.88-1.36-3.97-0.87-6.08
				C21.78,13.4,21.06,13.2,20.95,13.67L20.95,13.67z"/>
		</g>
	</g>
	<g>
		<g>
			<path class="st1" d="M21.85,21.61c0.63,2.4,1.41,4.74,2.34,7.04c0.18,0.44,0.9,0.25,0.72-0.2c-0.93-2.3-1.7-4.64-2.34-7.04
				C22.45,20.94,21.72,21.14,21.85,21.61L21.85,21.61z"/>
		</g>
	</g>
	<g>
		<g>
			<path class="st1" d="M22.77,23.16c0.59,1.77,1.19,3.54,1.78,5.31c0.15,0.46,0.88,0.26,0.72-0.2c-0.59-1.77-1.19-3.54-1.78-5.31
				C23.34,22.51,22.61,22.7,22.77,23.16L22.77,23.16z"/>
		</g>
	</g>
	<g>
		<g>
			<path class="st1" d="M26.24,21.59c-0.86,1.09-1.73,2.18-2.59,3.27c-0.3,0.37,0.23,0.91,0.53,0.53c0.86-1.09,1.73-2.18,2.59-3.27
				C27.06,21.75,26.53,21.21,26.24,21.59L26.24,21.59z"/>
		</g>
	</g>
	<g>
		<g>
			<path class="st1" d="M26.4,22.03c-0.72,1.14-1.44,2.28-2.15,3.42c-0.26,0.41,0.39,0.79,0.65,0.38c0.72-1.14,1.44-2.28,2.15-3.42
				C27.3,22,26.65,21.63,26.4,22.03L26.4,22.03z"/>
		</g>
	</g>
	<g>
		<g>
			<path class="st1" d="M24.25,17.75c0.68,1.61,1.47,3.16,2.4,4.64c0.26,0.41,0.9,0.03,0.65-0.38c-0.89-1.43-1.67-2.91-2.32-4.46
				C24.79,17.12,24.07,17.31,24.25,17.75L24.25,17.75z"/>
		</g>
	</g>
	<g>
		<g>
			<path class="st1" d="M26.73,22.78c0.84,1.68,1.67,3.36,2.51,5.03c0.22,0.43,0.86,0.05,0.65-0.38c-0.84-1.68-1.67-3.36-2.51-5.03
				C27.16,21.97,26.51,22.35,26.73,22.78L26.73,22.78z"/>
		</g>
	</g>
	<g>
		<g>
			<path class="st1" d="M23.9,26.79c0.33,0.52,0.66,1.04,0.99,1.55c0.26,0.41,0.91,0.03,0.65-0.38c-0.33-0.52-0.66-1.04-0.99-1.55
				C24.28,26,23.64,26.38,23.9,26.79L23.9,26.79z"/>
		</g>
	</g>
	<g>
		<g>
			<path class="st1" d="M24,26.69c0.86,1.74,1.72,3.49,2.58,5.23c0.21,0.43,0.86,0.05,0.65-0.38c-0.86-1.74-1.72-3.49-2.58-5.23
				C24.44,25.88,23.79,26.26,24,26.69L24,26.69z"/>
		</g>
	</g>
	<g>
		<g>
			<path class="st1" d="M24.11,28.48c0.43,0.98,0.85,1.96,1.28,2.94c0.19,0.44,0.84,0.06,0.65-0.38c-0.43-0.98-0.85-1.96-1.28-2.94
				C24.57,27.66,23.92,28.04,24.11,28.48L24.11,28.48z"/>
		</g>
	</g>
	<g>
		<g>
			<path class="st1" d="M25.14,30.55c0.34,0.42,0.67,0.84,1.01,1.26c0.3,0.38,0.83-0.16,0.53-0.53c-0.34-0.42-0.67-0.84-1.01-1.26
				C25.37,29.64,24.84,30.17,25.14,30.55L25.14,30.55z"/>
		</g>
	</g>
	<g>
		<g>
			<path class="st1" d="M28.59,26.76c-1.18,0.97-1.99,2.26-2.36,3.74c-0.12,0.47,0.61,0.67,0.72,0.2c0.34-1.37,1.08-2.52,2.17-3.41
				C29.49,26.99,28.96,26.46,28.59,26.76L28.59,26.76z"/>
		</g>
	</g>
	<g>
		<g>
			<path class="st1" d="M28.51,26.49c-0.85,0.95-1.55,2.01-2.07,3.18c-0.2,0.44,0.45,0.82,0.65,0.38c0.5-1.11,1.14-2.12,1.95-3.03
				C29.37,26.67,28.84,26.13,28.51,26.49L28.51,26.49z"/>
		</g>
	</g>
	<g>
		<g>
			<path class="st1" d="M27.01,30.18c0.24-1.36,0.92-2.51,2-3.38c0.38-0.3-0.16-0.83-0.53-0.53c-1.16,0.94-1.93,2.24-2.19,3.71
				C26.2,30.45,26.92,30.66,27.01,30.18L27.01,30.18z"/>
		</g>
	</g>
	<g>
		<g>
			<path class="st1" d="M26.72,31.64c0.98,0.85,1.64,1.93,1.92,3.2c0.11,0.47,0.83,0.27,0.72-0.2c-0.31-1.38-1.04-2.6-2.11-3.53
				C26.88,30.8,26.35,31.33,26.72,31.64L26.72,31.64z"/>
		</g>
	</g>
	<g>
		<g>
			<path class="st1" d="M27.02,32.47c0.6,0.94,1.06,1.92,1.38,2.98c0.14,0.46,0.86,0.26,0.72-0.2c-0.34-1.12-0.83-2.18-1.45-3.16
				C27.41,31.68,26.76,32.06,27.02,32.47L27.02,32.47z"/>
		</g>
	</g>
	<g>
		<g>
			<path class="st1" d="M29.56,28.01c0.7,1.23,1.41,2.46,2.11,3.69c0.24,0.42,0.89,0.04,0.65-0.38c-0.7-1.23-1.41-2.46-2.11-3.69
				C29.97,27.21,29.32,27.59,29.56,28.01L29.56,28.01z"/>
		</g>
	</g>
	<g>
		<g>
			<path class="st1" d="M28.81,27.02c0.71,1.32,1.42,2.64,2.13,3.96c0.23,0.43,0.88,0.05,0.65-0.38c-0.71-1.32-1.42-2.64-2.13-3.96
				C29.23,26.21,28.58,26.59,28.81,27.02L28.81,27.02z"/>
		</g>
	</g>
	<g>
		<g>
			<path class="st1" d="M24.61,25.75c0.18-0.15,0.36-0.3,0.55-0.45c0.32-0.27-0.11-0.83-0.45-0.59c-0.2,0.14-0.41,0.29-0.61,0.43
				c0.15,0.2,0.3,0.39,0.45,0.59c0.26-0.28,0.52-0.57,0.78-0.85c0.33-0.35-0.2-0.89-0.53-0.53c-0.26,0.28-0.52,0.57-0.78,0.85
				c-0.27,0.3,0.09,0.85,0.45,0.59c0.2-0.14,0.41-0.29,0.61-0.43c-0.15-0.2-0.3-0.39-0.45-0.59c-0.18,0.15-0.36,0.3-0.55,0.45
				C23.71,25.53,24.24,26.06,24.61,25.75L24.61,25.75z"/>
		</g>
	</g>
	<g>
		<g>
			<path class="st1" d="M24.62,29.34c0.28,0.68,0.55,1.35,0.83,2.03c0.23-0.1,0.46-0.19,0.69-0.29c-0.17-0.33-0.33-0.66-0.5-0.98
				c-0.2,0.15-0.39,0.3-0.59,0.45c0.26,0.34,0.53,0.67,0.79,1.01c0.3,0.38,0.83-0.15,0.53-0.53c-0.26-0.34-0.53-0.67-0.79-1.01
				c-0.28-0.35-0.77,0.1-0.59,0.45c0.17,0.33,0.33,0.66,0.5,0.98c0.19,0.37,0.85,0.11,0.69-0.29c-0.28-0.68-0.55-1.35-0.83-2.03
				C25.16,28.7,24.44,28.9,24.62,29.34L24.62,29.34z"/>
		</g>
	</g>
	<g id="Calque_4">
	</g>
	<g>
		<g>
			<path class="st0" d="M18.65,7.54c0.8,1.48,1.6,2.96,2.41,4.44c0.23,0.42,0.88,0.05,0.65-0.38c-0.8-1.48-1.6-2.96-2.41-4.44
				C19.06,6.73,18.42,7.11,18.65,7.54L18.65,7.54z"/>
		</g>
	</g>
	<g>
		<g>
			<path class="st0" d="M18.39,7.34c-0.93,2.97-1.2,5.97-0.82,9.05c0.06,0.47,0.81,0.48,0.75,0c-0.37-3.01-0.11-5.95,0.8-8.85
				C19.26,7.07,18.54,6.88,18.39,7.34L18.39,7.34z"/>
		</g>
	</g>
	<g>
		<g>
			<path class="st0" d="M17.45,16.15c-0.05,2.16,0.33,4.23,1.14,6.23c0.18,0.44,0.9,0.25,0.72-0.2c-0.78-1.94-1.16-3.94-1.11-6.04
				C18.21,15.67,17.46,15.67,17.45,16.15L17.45,16.15z"/>
		</g>
	</g>
	<g>
		<g>
			<path class="st0" d="M18.49,22.16c0.59,2.12,1.46,4.12,2.6,6.01c0.25,0.41,0.9,0.04,0.65-0.38c-1.1-1.83-1.94-3.77-2.52-5.83
				C19.08,21.5,18.36,21.7,18.49,22.16L18.49,22.16z"/>
		</g>
	</g>
	<g>
		<g>
			<path class="st0" d="M21.07,28.06c0.37,0.22,0.75,0.43,1.12,0.65c0.42,0.24,0.8-0.41,0.38-0.65c-0.37-0.22-0.75-0.43-1.12-0.65
				C21.03,27.17,20.66,27.82,21.07,28.06L21.07,28.06z"/>
		</g>
	</g>
	<g>
		<g>
			<path class="st0" d="M21.9,28.4c-0.14,0.23-0.27,0.45-0.41,0.68c-0.25,0.41,0.4,0.79,0.65,0.38c0.14-0.23,0.27-0.45,0.41-0.68
				C22.79,28.36,22.15,27.98,21.9,28.4L21.9,28.4z"/>
		</g>
	</g>
	<g>
		<g>
			<path class="st0" d="M21.84,29.74c0.48,0,0.48-0.75,0-0.75C21.36,28.99,21.36,29.74,21.84,29.74L21.84,29.74z"/>
		</g>
	</g>
	<g>
		<g>
			<path class="st0" d="M21.49,29.5c0.17,0.42,0.34,0.84,0.5,1.26c0.18,0.44,0.9,0.25,0.72-0.2c-0.17-0.42-0.34-0.84-0.5-1.26
				C22.03,28.85,21.31,29.05,21.49,29.5L21.49,29.5z"/>
		</g>
	</g>
	<g>
		<g>
			<path class="st0" d="M22.22,31.02c0.39,0.08,0.77,0.15,1.16,0.23c0.47,0.09,0.67-0.63,0.2-0.72c-0.39-0.08-0.77-0.15-1.16-0.23
				C21.95,30.2,21.74,30.93,22.22,31.02L22.22,31.02z"/>
		</g>
	</g>
	<g>
		<g>
			<path class="st0" d="M22.93,32.23c0.32-0.16,0.63-0.32,0.95-0.47c0.43-0.21,0.05-0.86-0.38-0.65c-0.32,0.16-0.63,0.32-0.95,0.47
				C22.11,31.79,22.49,32.44,22.93,32.23L22.93,32.23z"/>
		</g>
	</g>
	<g>
		<g>
			<path class="st0" d="M22.41,32.21c0.12,0.42,0.25,0.84,0.37,1.26c0.14,0.46,0.86,0.27,0.72-0.2c-0.12-0.42-0.25-0.84-0.37-1.26
				C22.99,31.55,22.27,31.75,22.41,32.21L22.41,32.21z"/>
		</g>
	</g>
	<g>
		<g>
			<path class="st0" d="M23.49,33.8c0.4-0.59,0.87-1.09,1.41-1.54c0.37-0.31-0.16-0.84-0.53-0.53c-0.59,0.49-1.1,1.06-1.53,1.7
				C22.57,33.82,23.22,34.2,23.49,33.8L23.49,33.8z"/>
		</g>
	</g>
	<g>
		<g>
			<path class="st0" d="M23.27,34.03c0.84,0.18,1.68,0.35,2.52,0.53c0.47,0.1,0.67-0.62,0.2-0.72c-0.84-0.18-1.68-0.35-2.52-0.53
				C23,33.21,22.8,33.93,23.27,34.03L23.27,34.03z"/>
		</g>
	</g>
	<g>
		<g>
			<path class="st0" d="M25.68,34.37c0.26,0.63,0.52,1.27,0.78,1.9c0.18,0.44,0.91,0.25,0.72-0.2c-0.26-0.63-0.52-1.27-0.78-1.9
				C26.23,33.73,25.5,33.93,25.68,34.37L25.68,34.37z"/>
		</g>
	</g>
	<g>
		<g>
			<path class="st0" d="M25.91,32.76c0.53,1.01,1.05,2.02,1.58,3.03c0.22,0.43,0.87,0.05,0.65-0.38c-0.53-1.01-1.05-2.02-1.58-3.03
				C26.33,31.96,25.68,32.33,25.91,32.76L25.91,32.76z"/>
		</g>
	</g>
	<g>
		<g>
			<path class="st0" d="M24.83,32.58c0.38,0.08,0.77,0.16,1.15,0.24c0.47,0.1,0.67-0.63,0.2-0.72c-0.38-0.08-0.77-0.16-1.15-0.24
				C24.56,31.76,24.36,32.48,24.83,32.58L24.83,32.58z"/>
		</g>
	</g>
	<g>
		<g>
			<path class="st0" d="M20.28,11.16c-0.55,1.71-0.93,3.45-1.15,5.23c-0.06,0.48,0.69,0.47,0.75,0c0.21-1.72,0.59-3.39,1.12-5.03
				C21.15,10.9,20.42,10.7,20.28,11.16L20.28,11.16z"/>
		</g>
	</g>
	<g>
		<g>
			<path class="st0" d="M19.18,16.53c0.28,1.64,0.57,3.28,0.85,4.92c0.08,0.47,0.8,0.27,0.72-0.2c-0.28-1.64-0.57-3.28-0.85-4.92
				C19.82,15.85,19.1,16.06,19.18,16.53L19.18,16.53z"/>
		</g>
	</g>
	<g>
		<g>
			<path class="st0" d="M20.05,21.43c0.99,2.47,1.99,4.95,2.98,7.42c0.18,0.44,0.9,0.25,0.72-0.2c-0.99-2.47-1.99-4.95-2.98-7.42
				C20.59,20.79,19.87,20.98,20.05,21.43L20.05,21.43z"/>
		</g>
	</g>
	<g>
		<g>
			<path class="st0" d="M23.14,29.06c0.5,1.14,1,2.29,1.51,3.43c0.19,0.44,0.84,0.06,0.65-0.38c-0.5-1.14-1-2.29-1.51-3.43
				C23.59,28.24,22.95,28.62,23.14,29.06L23.14,29.06z"/>
		</g>
	</g>
	<g>
		<g>
			<path class="st0" d="M18.45,6.98c-0.07,0.36-0.14,0.72-0.21,1.08c-0.09,0.47,0.63,0.67,0.72,0.2c0.07-0.36,0.14-0.72,0.21-1.08
				C19.27,6.71,18.55,6.51,18.45,6.98L18.45,6.98z"/>
		</g>
	</g>
	<g>
		<g>
			<path class="st0" d="M18.67,8.28c0.4,1.1,0.67,2.23,0.8,3.4c0.05,0.47,0.8,0.48,0.75,0c-0.13-1.24-0.4-2.43-0.82-3.6
				C19.24,7.63,18.51,7.83,18.67,8.28L18.67,8.28z"/>
		</g>
	</g>
	<g>
		<g>
			<path class="st0" d="M18.79,8.16c-0.19,1.54-0.38,3.07-0.57,4.61c-0.06,0.48,0.69,0.47,0.75,0c0.19-1.54,0.38-3.07,0.57-4.61
				C19.6,7.68,18.85,7.68,18.79,8.16L18.79,8.16z"/>
		</g>
	</g>
	<g>
		<g>
			<path class="st0" d="M18.41,8.94c-0.35,1.84-0.48,3.68-0.37,5.55c0.03,0.48,0.78,0.48,0.75,0c-0.1-1.8,0.01-3.58,0.35-5.35
				C19.22,8.67,18.5,8.47,18.41,8.94L18.41,8.94z"/>
		</g>
	</g>
	<g>
		<g>
			<path class="st0" d="M18.93,10.21c-0.06,1.13-0.12,2.27-0.19,3.4c-0.02,0.42,0.64,0.51,0.74,0.1c0.27-1.09,0.54-2.19,0.81-3.28
				c-0.24-0.07-0.48-0.13-0.72-0.2c-0.11,0.63-0.22,1.26-0.33,1.89c-0.08,0.48,0.55,0.65,0.72,0.2c0.14-0.36,0.28-0.71,0.42-1.07
				c-0.24-0.07-0.48-0.13-0.72-0.2c-0.03,0.13-0.05,0.27-0.08,0.4c-0.09,0.48,0.54,0.64,0.72,0.2c0.09-0.21,0.17-0.41,0.26-0.62
				c-0.24-0.07-0.48-0.13-0.72-0.2c-0.04,0.12-0.08,0.23-0.11,0.35c0.24,0.07,0.48,0.13,0.72,0.2c0.01-0.08,0.03-0.16,0.04-0.23
				c0.09-0.47-0.63-0.67-0.72-0.2c-0.01,0.08-0.03,0.16-0.04,0.23c-0.09,0.47,0.57,0.66,0.72,0.2c0.04-0.12,0.08-0.23,0.11-0.35
				c0.15-0.47-0.54-0.63-0.72-0.2c-0.09,0.21-0.17,0.41-0.26,0.62c0.24,0.07,0.48,0.13,0.72,0.2c0.03-0.13,0.05-0.27,0.08-0.4
				c0.09-0.48-0.55-0.65-0.72-0.2c-0.14,0.36-0.28,0.71-0.42,1.07c0.24,0.07,0.48,0.13,0.72,0.2c0.11-0.63,0.22-1.26,0.33-1.89
				c0.08-0.47-0.61-0.68-0.72-0.2c-0.27,1.09-0.54,2.19-0.81,3.28c0.25,0.03,0.49,0.07,0.74,0.1c0.06-1.13,0.12-2.27,0.19-3.4
				C19.71,9.73,18.96,9.73,18.93,10.21L18.93,10.21z"/>
		</g>
	</g>
	<g>
		<g>
			<path class="st0" d="M19.85,11.3c-0.47,1.33-0.95,2.67-1.42,4c-0.16,0.46,0.56,0.65,0.72,0.2c0.47-1.33,0.95-2.67,1.42-4
				C20.74,11.04,20.01,10.84,19.85,11.3L19.85,11.3z"/>
		</g>
	</g>
	<g>
		<g>
			<path class="st0" d="M19.22,12.38c-0.47,1.71-0.77,3.44-0.91,5.2c-0.04,0.48,0.71,0.48,0.75,0c0.13-1.7,0.43-3.36,0.88-5
				C20.07,12.12,19.35,11.92,19.22,12.38L19.22,12.38z"/>
		</g>
	</g>
	<g>
		<g>
			<path class="st0" d="M18.29,14.27c-0.17,1.18-0.23,2.36-0.16,3.55c0.03,0.48,0.78,0.48,0.75,0c-0.06-1.12-0.02-2.24,0.14-3.35
				C19.08,14,18.35,13.79,18.29,14.27L18.29,14.27z"/>
		</g>
	</g>
	<g>
		<g>
			<path class="st0" d="M18.14,15.1c-0.06,1.8,0.05,3.58,0.33,5.35c0.08,0.48,0.8,0.27,0.72-0.2c-0.27-1.71-0.37-3.42-0.31-5.15
				C18.91,14.62,18.16,14.62,18.14,15.1L18.14,15.1z"/>
		</g>
	</g>
	<g>
		<g>
			<path class="st0" d="M18.67,16.75c0.12,1.48,0.25,2.97,0.37,4.45c0.04,0.48,0.79,0.48,0.75,0c-0.12-1.48-0.25-2.97-0.37-4.45
				C19.38,16.27,18.63,16.26,18.67,16.75L18.67,16.75z"/>
		</g>
	</g>
	<g>
		<g>
			<path class="st0" d="M18.87,16.63c0.28,2.1,0.56,4.19,0.84,6.29c0.06,0.47,0.81,0.48,0.75,0c-0.28-2.1-0.56-4.19-0.84-6.29
				C19.56,16.16,18.81,16.15,18.87,16.63L18.87,16.63z"/>
		</g>
	</g>
	<g>
		<g>
			<path class="st0" d="M20.26,11.65c-1.02,2.59-1.2,5.3-0.56,8.01c0.11,0.47,0.83,0.27,0.72-0.2c-0.61-2.58-0.42-5.14,0.56-7.61
				C21.16,11.4,20.43,11.21,20.26,11.65L20.26,11.65z"/>
		</g>
	</g>
	<g>
		<g>
			<path class="st0" d="M18.72,20.93c0.48,1.7,0.95,3.4,1.43,5.11c0.13,0.46,0.85,0.27,0.72-0.2c-0.48-1.7-0.95-3.4-1.43-5.11
				C19.31,20.27,18.59,20.47,18.72,20.93L18.72,20.93z"/>
		</g>
	</g>
	<g>
		<g>
			<path class="st0" d="M19.56,21.96c0.6,1.66,1.21,3.32,1.81,4.98c0.16,0.45,0.89,0.26,0.72-0.2c-0.6-1.66-1.21-3.32-1.81-4.98
				C20.12,21.31,19.39,21.51,19.56,21.96L19.56,21.96z"/>
		</g>
	</g>
	<g>
		<g>
			<path class="st0" d="M20.27,23.1c0.31,1.42,0.61,2.83,0.92,4.25c0.1,0.47,0.83,0.27,0.72-0.2c-0.31-1.42-0.61-2.83-0.92-4.25
				C20.89,22.43,20.17,22.63,20.27,23.1L20.27,23.1z"/>
		</g>
	</g>
	<g>
		<g>
			<path class="st0" d="M20.5,25.47c0.19,0.79,0.47,1.55,0.84,2.28c0.22,0.43,0.86,0.05,0.65-0.38c-0.34-0.67-0.59-1.37-0.76-2.1
				C21.11,24.8,20.39,25,20.5,25.47L20.5,25.47z"/>
		</g>
	</g>
	<g>
		<g>
			<path class="st0" d="M20.71,26.02c0.45,0.86,0.9,1.73,1.35,2.59c0.22,0.43,0.87,0.05,0.65-0.38c-0.45-0.86-0.9-1.73-1.35-2.59
				C21.14,25.21,20.49,25.59,20.71,26.02L20.71,26.02z"/>
		</g>
	</g>
	<g>
		<g>
			<path class="st0" d="M21.33,26.23c0.37,0.92,0.74,1.85,1.11,2.77c0.18,0.44,0.9,0.25,0.72-0.2c-0.37-0.92-0.74-1.85-1.11-2.77
				C21.87,25.58,21.15,25.78,21.33,26.23L21.33,26.23z"/>
		</g>
	</g>
	<g>
		<g>
			<path class="st0" d="M21.25,25.34c0.36,1.23,0.73,2.46,1.09,3.7c0.14,0.46,0.86,0.27,0.72-0.2c-0.36-1.23-0.73-2.46-1.09-3.7
				C21.84,24.68,21.12,24.88,21.25,25.34L21.25,25.34z"/>
		</g>
	</g>
	<g>
		<g>
			<path class="st0" d="M21.57,25.86c0.35,1.66,0.69,3.32,1.04,4.98c0.1,0.47,0.82,0.27,0.72-0.2c-0.35-1.66-0.69-3.32-1.04-4.98
				C22.19,25.18,21.47,25.38,21.57,25.86L21.57,25.86z"/>
		</g>
	</g>
	<g>
		<g>
			<path class="st0" d="M22.11,29.45c0.21,0.44,0.42,0.89,0.63,1.33c0.21,0.44,0.85,0.06,0.65-0.38c-0.21-0.44-0.42-0.89-0.63-1.33
				C22.55,28.64,21.9,29.02,22.11,29.45L22.11,29.45z"/>
		</g>
	</g>
	<g>
		<g>
			<path class="st0" d="M22.33,29.6c0.33,0.67,0.67,1.34,1,2c0.22,0.43,0.86,0.05,0.65-0.38c-0.33-0.67-0.67-1.34-1-2
				C22.77,28.79,22.12,29.17,22.33,29.6L22.33,29.6z"/>
		</g>
	</g>
	<g>
		<g>
			<path class="st0" d="M22.64,29.48c0.34,0.86,0.69,1.73,1.03,2.59c0.18,0.44,0.9,0.25,0.72-0.2c-0.34-0.86-0.69-1.73-1.03-2.59
				C23.18,28.84,22.46,29.03,22.64,29.48L22.64,29.48z"/>
		</g>
	</g>
	<g>
		<g>
			<path class="st0" d="M22.9,29.43c0.36,0.93,0.73,1.87,1.09,2.8c0.17,0.45,0.9,0.25,0.72-0.2c-0.36-0.93-0.73-1.87-1.09-2.8
				C23.45,28.79,22.72,28.98,22.9,29.43L22.9,29.43z"/>
		</g>
	</g>
	<g>
		<g>
			<path class="st0" d="M23.54,31.74c-0.38,0.27-0.61,0.9-0.07,1.17c0.44,0.22,0.91-0.19,0.78-0.66c-0.13-0.5-0.77-0.55-1.05-0.17
				c-0.33,0.45,0,0.93,0.46,1.09c0.25,0.08,0.45-0.13,0.47-0.36c0-0.04,0.01-0.07,0.01-0.11c-0.23,0.06-0.47,0.13-0.7,0.19
				c0.02,0.04,0.04,0.08,0.05,0.12c0.2,0.44,0.84,0.06,0.65-0.38c-0.02-0.04-0.04-0.08-0.05-0.12c-0.17-0.37-0.67-0.14-0.7,0.19
				c0,0.04-0.01,0.07-0.01,0.11c0.16-0.12,0.32-0.24,0.47-0.36c-0.12,0-0.24-0.01-0.36-0.01c0.06-0.07,0.11-0.15,0.17-0.22
				c0,0-0.01,0-0.01-0.01c0.09,0.04,0.18,0.07,0.27,0.11c0,0.02,0,0.04-0.01,0.07C24.31,32.11,23.93,31.46,23.54,31.74L23.54,31.74z
				"/>
		</g>
	</g>
	<g>
		<g>
			<path class="st0" d="M23.93,33.62c0.48,0.09,0.92,0.25,1.35,0.49c0.42,0.24,0.8-0.41,0.38-0.65c-0.48-0.27-0.98-0.46-1.53-0.56
				C23.65,32.81,23.45,33.53,23.93,33.62L23.93,33.62z"/>
		</g>
	</g>
	<g>
		<g>
			<path class="st0" d="M24.23,33.27c0.38,0.16,0.75,0.32,1.13,0.48c0.44,0.19,0.82-0.46,0.38-0.65c-0.38-0.16-0.75-0.32-1.13-0.48
				C24.17,32.43,23.79,33.08,24.23,33.27L24.23,33.27z"/>
		</g>
	</g>
	<g>
		<g>
			<path class="st0" d="M24.09,33.05c0.43,0.16,0.86,0.32,1.28,0.48c0.45,0.17,0.65-0.56,0.2-0.72c-0.43-0.16-0.86-0.32-1.28-0.48
				C23.83,32.15,23.64,32.88,24.09,33.05L24.09,33.05z"/>
		</g>
	</g>
	<g>
		<g>
			<path class="st0" d="M24.53,32.92c0.45,0.14,0.82,0.38,1.16,0.72c0.34,0.35,0.87-0.18,0.53-0.53c-0.42-0.43-0.91-0.73-1.49-0.92
				C24.27,32.05,24.07,32.77,24.53,32.92L24.53,32.92z"/>
		</g>
	</g>
	<g>
		<g>
			<path class="st0" d="M25.17,33.11c0.25,0.34,0.5,0.67,0.75,1.01c0.28,0.38,0.94,0.01,0.65-0.38c-0.25-0.34-0.5-0.67-0.75-1.01
				C25.53,32.34,24.88,32.72,25.17,33.11L25.17,33.11z"/>
		</g>
	</g>
	<g>
		<g>
			<path class="st0" d="M25.54,33.53c0.27,0.47,0.54,0.93,0.81,1.4c0.24,0.42,0.89,0.04,0.65-0.38c-0.27-0.47-0.54-0.93-0.81-1.4
				C25.94,32.74,25.29,33.11,25.54,33.53L25.54,33.53z"/>
		</g>
	</g>
	<g>
		<g>
			<path class="st0" d="M25.9,34.05c0.27,0.55,0.53,1.1,0.8,1.64c0.21,0.43,0.86,0.05,0.65-0.38c-0.27-0.55-0.53-1.1-0.8-1.64
				C26.34,33.24,25.69,33.62,25.9,34.05L25.9,34.05z"/>
		</g>
	</g>
	<g>
		<g>
			<path class="st1" d="M21.18,11.53c-0.14,0.32-0.28,0.63-0.42,0.95c-0.19,0.44,0.45,0.82,0.65,0.38c0.14-0.32,0.28-0.63,0.42-0.95
				C22.02,11.47,21.38,11.09,21.18,11.53L21.18,11.53z"/>
		</g>
	</g>
	<g>
		<g>
			<path class="st1" d="M21.11,11.8c0.15,0.58,0.3,1.16,0.45,1.74c0.12,0.47,0.85,0.27,0.72-0.2c-0.15-0.58-0.3-1.16-0.45-1.74
				C21.71,11.13,20.99,11.33,21.11,11.8L21.11,11.8z"/>
		</g>
	</g>
	<g>
		<g>
			<path class="st1" d="M21.29,11.52c-0.37,0.4-0.56,0.84-0.58,1.38c-0.02,0.48,0.73,0.48,0.75,0c0.01-0.34,0.13-0.61,0.36-0.85
				C22.15,11.69,21.62,11.16,21.29,11.52L21.29,11.52z"/>
		</g>
	</g>
	<g>
		<g>
			<path class="st1" d="M21.15,11.46c-0.48,0.77-0.71,1.63-0.69,2.54c0.01,0.48,0.76,0.48,0.75,0c-0.02-0.78,0.17-1.49,0.59-2.16
				C22.05,11.43,21.4,11.05,21.15,11.46L21.15,11.46z"/>
		</g>
	</g>
	<g>
		<g>
			<path class="st1" d="M20.84,12.22c-1.12,3.06-1.06,6.27,0.2,9.28c0.18,0.44,0.91,0.25,0.72-0.2c-1.21-2.9-1.28-5.93-0.2-8.88
				C21.73,11.96,21.01,11.77,20.84,12.22L20.84,12.22z"/>
		</g>
	</g>
	<g>
		<g>
			<path class="st1" d="M20.87,12.12c-0.69,1.83-0.84,3.73-0.48,5.64c0.09,0.47,0.81,0.27,0.72-0.2c-0.34-1.79-0.16-3.55,0.48-5.25
				C21.76,11.87,21.04,11.67,20.87,12.12L20.87,12.12z"/>
		</g>
	</g>
	<g>
		<g>
			<path class="st1" d="M22.28,14.15c-0.07-0.05-0.13-0.09-0.2-0.14c-0.22-0.15-0.6,0.04-0.56,0.32c0.26,2.25,0.69,4.46,1.29,6.64
				c0.13,0.46,0.85,0.27,0.72-0.2c-0.59-2.12-1.01-4.26-1.27-6.44c-0.19,0.11-0.38,0.22-0.56,0.32c0.07,0.05,0.13,0.09,0.2,0.14
				C22.3,15.07,22.68,14.42,22.28,14.15L22.28,14.15z"/>
		</g>
	</g>
	<g>
		<g>
			<path class="st1" d="M21.44,14.91c0.06,1.67,0.28,3.31,0.66,4.94c0.11,0.47,0.83,0.27,0.72-0.2c-0.36-1.56-0.57-3.14-0.63-4.74
				C22.17,14.42,21.42,14.42,21.44,14.91L21.44,14.91z"/>
		</g>
	</g>
	<g>
		<g>
			<path class="st1" d="M22.3,16c-0.02-0.02-0.03-0.03-0.05-0.05c-0.34-0.34-0.87,0.19-0.53,0.53c0.02,0.02,0.03,0.03,0.05,0.05
				C22.11,16.87,22.64,16.34,22.3,16L22.3,16z"/>
		</g>
	</g>
	<g>
		<g>
			<path class="st1" d="M21.23,14.02c-0.32,1.86-0.08,3.64,0.69,5.36c0.2,0.44,0.85,0.06,0.65-0.38c-0.69-1.52-0.9-3.14-0.62-4.78
				C22.04,13.75,21.31,13.54,21.23,14.02L21.23,14.02z"/>
		</g>
	</g>
	<g>
		<g>
			<path class="st1" d="M21.72,14.01c0.32,1.4,0.79,2.75,1.4,4.05c0.2,0.44,0.85,0.06,0.65-0.38c-0.58-1.24-1.02-2.53-1.33-3.87
				C22.34,13.34,21.61,13.53,21.72,14.01L21.72,14.01z"/>
		</g>
	</g>
	<g>
		<g>
			<path class="st1" d="M22.12,15.24c0.33,1.7,0.85,3.32,1.53,4.91c0.19,0.44,0.84,0.06,0.65-0.38c-0.66-1.52-1.14-3.1-1.45-4.73
				C22.75,14.57,22.03,14.77,22.12,15.24L22.12,15.24z"/>
		</g>
	</g>
	<g>
		<g>
			<path class="st1" d="M22.45,17.16c0.61,2.05,1.22,4.11,1.83,6.16c0.14,0.46,0.86,0.27,0.72-0.2c-0.61-2.05-1.22-4.11-1.83-6.16
				C23.04,16.5,22.31,16.69,22.45,17.16L22.45,17.16z"/>
		</g>
	</g>
	<g>
		<g>
			<path class="st1" d="M22.66,20.78c0.69,1.69,1.39,3.37,2.08,5.06c0.18,0.44,0.91,0.25,0.72-0.2c-0.69-1.69-1.39-3.37-2.08-5.06
				C23.2,20.14,22.47,20.33,22.66,20.78L22.66,20.78z"/>
		</g>
	</g>
	<g>
		<g>
			<path class="st1" d="M22.36,21.24c0.71,1.5,1.42,2.99,2.13,4.49c0.21,0.44,0.85,0.06,0.65-0.38c-0.71-1.5-1.42-2.99-2.13-4.49
				C22.8,20.43,22.16,20.81,22.36,21.24L22.36,21.24z"/>
		</g>
	</g>
	<g>
		<g>
			<path class="st1" d="M22.93,19.88c0.99,2.09,2.14,4.08,3.43,6c0.27,0.4,0.92,0.02,0.65-0.38c-1.3-1.91-2.44-3.91-3.43-6
				C23.37,19.06,22.72,19.44,22.93,19.88L22.93,19.88z"/>
		</g>
	</g>
	<g>
		<g>
			<path class="st1" d="M23.33,18.38c0.93,2.16,1.85,4.33,2.78,6.49c0.19,0.44,0.84,0.06,0.65-0.38c-0.93-2.16-1.85-4.33-2.78-6.49
				C23.79,17.56,23.14,17.94,23.33,18.38L23.33,18.38z"/>
		</g>
	</g>
	<g>
		<g>
			<path class="st1" d="M24.44,19.64c0.51,1.35,1.1,2.66,1.79,3.93c0.23,0.42,0.88,0.05,0.65-0.38c-0.66-1.21-1.23-2.46-1.72-3.75
				C25,18.99,24.27,19.19,24.44,19.64L24.44,19.64z"/>
		</g>
	</g>
	<g>
		<g>
			<path class="st1" d="M23.51,17.91c0.62,0.95,1.23,1.91,1.85,2.86c0.26,0.4,0.91,0.03,0.65-0.38c-0.62-0.95-1.23-1.91-1.85-2.86
				C23.9,17.13,23.25,17.5,23.51,17.91L23.51,17.91z"/>
		</g>
	</g>
	<g>
		<g>
			<path class="st1" d="M23.97,18.6c0.81,1.84,1.63,3.69,2.44,5.53c0.19,0.44,0.84,0.06,0.65-0.38c-0.81-1.84-1.63-3.69-2.44-5.53
				C24.42,17.78,23.78,18.17,23.97,18.6L23.97,18.6z"/>
		</g>
	</g>
	<g>
		<g>
			<path class="st1" d="M24.53,21.09c0.48,1.03,0.97,2.05,1.45,3.08c0.21,0.44,0.85,0.06,0.65-0.38c-0.48-1.03-0.97-2.05-1.45-3.08
				C24.98,20.27,24.33,20.65,24.53,21.09L24.53,21.09z"/>
		</g>
	</g>
	<g>
		<g>
			<path class="st1" d="M23.89,20.18c0.36,0.71,0.73,1.42,1.09,2.13c0.22-0.13,0.43-0.25,0.65-0.38c-0.07-0.12-0.14-0.25-0.21-0.37
				c-0.24-0.42-0.88-0.04-0.65,0.38c0.07,0.12,0.14,0.25,0.21,0.37c0.24,0.42,0.87,0.05,0.65-0.38c-0.36-0.71-0.73-1.42-1.09-2.13
				C24.32,19.38,23.67,19.76,23.89,20.18L23.89,20.18z"/>
		</g>
	</g>
	<g>
		<g>
			<path class="st1" d="M24.25,20.75c0.24,0.49,0.47,0.99,0.71,1.48c0.22-0.13,0.43-0.25,0.65-0.38c-0.19-0.38-0.37-0.75-0.56-1.13
				c-0.19-0.37-0.84-0.11-0.69,0.29c0.28,0.72,0.57,1.43,0.85,2.15c0.18,0.44,0.9,0.25,0.72-0.2c-0.28-0.72-0.57-1.43-0.85-2.15
				c-0.23,0.1-0.46,0.19-0.69,0.29c0.19,0.38,0.37,0.75,0.56,1.13c0.21,0.43,0.86,0.05,0.65-0.38c-0.24-0.49-0.47-0.99-0.71-1.48
				C24.69,19.94,24.05,20.32,24.25,20.75L24.25,20.75z"/>
		</g>
	</g>
	<g>
		<g>
			<path class="st1" d="M24.7,25.13c-0.06,0.02-0.11,0.04-0.17,0.06c-0.19,0.06-0.32,0.26-0.26,0.46c0.48,1.61,0.96,3.22,1.44,4.83
				c0.14,0.46,0.86,0.26,0.72-0.2c-0.48-1.61-0.96-3.22-1.44-4.83c-0.09,0.15-0.17,0.31-0.26,0.46c0.06-0.02,0.11-0.04,0.17-0.06
				C25.35,25.7,25.16,24.97,24.7,25.13L24.7,25.13z"/>
		</g>
	</g>
	<g>
		<g>
			<path class="st1" d="M24.62,26.44c0.66,1.39,1.31,2.79,1.97,4.18c0.21,0.44,0.85,0.06,0.65-0.38c-0.66-1.39-1.31-2.79-1.97-4.18
				C25.07,25.62,24.42,26,24.62,26.44L24.62,26.44z"/>
		</g>
	</g>
	<g>
		<g>
			<path class="st1" d="M24.99,24.8c1.11,2.26,2.22,4.51,3.32,6.77c0.21,0.43,0.86,0.05,0.65-0.38c-1.11-2.26-2.22-4.51-3.32-6.77
				C25.42,23.99,24.78,24.37,24.99,24.8L24.99,24.8z"/>
		</g>
	</g>
	<g>
		<g>
			<path class="st1" d="M25.24,26.03c0.53,1.21,1.07,2.41,1.6,3.62c0.2,0.44,0.84,0.06,0.65-0.38c-0.53-1.21-1.07-2.41-1.6-3.62
				C25.69,25.21,25.05,25.6,25.24,26.03L25.24,26.03z"/>
		</g>
	</g>
	<g>
		<g>
			<path class="st1" d="M24.82,25.41c0.93,1.87,2.01,3.65,3.24,5.35c0.28,0.39,0.93,0.01,0.65-0.38c-1.23-1.69-2.31-3.47-3.24-5.35
				C25.25,24.6,24.6,24.98,24.82,25.41L24.82,25.41z"/>
		</g>
	</g>
	<g>
		<g>
			<path class="st1" d="M26.94,26.07c0.43,0.97,0.86,1.94,1.28,2.91c0.19,0.44,0.84,0.06,0.65-0.38c-0.43-0.97-0.86-1.94-1.28-2.91
				C27.39,25.25,26.75,25.63,26.94,26.07L26.94,26.07z"/>
		</g>
	</g>
	<g>
		<g>
			<path class="st1" d="M26.63,23.69c0.61,1.42,1.22,2.85,1.82,4.27c0.19,0.44,0.84,0.06,0.65-0.38c-0.61-1.42-1.22-2.85-1.82-4.27
				C27.09,22.87,26.44,23.25,26.63,23.69L26.63,23.69z"/>
		</g>
	</g>
	<g>
		<g>
			<path class="st1" d="M25.96,23.11c0.68,1.47,1.36,2.94,2.04,4.42c0.2,0.44,0.85,0.06,0.65-0.38c-0.68-1.47-1.36-2.94-2.04-4.42
				C26.41,22.3,25.76,22.68,25.96,23.11L25.96,23.11z"/>
		</g>
	</g>
	<g>
		<g>
			<path class="st1" d="M26.55,24.48c0.53,1.33,1.05,2.66,1.58,3.99c0.18,0.44,0.9,0.25,0.72-0.2c-0.53-1.33-1.05-2.66-1.58-3.99
				C27.1,23.84,26.37,24.03,26.55,24.48L26.55,24.48z"/>
		</g>
	</g>
	<g>
		<g>
			<path class="st1" d="M26.29,24.7c0.43,1.11,0.86,2.21,1.29,3.32c0.17,0.44,0.9,0.25,0.72-0.2c-0.43-1.11-0.86-2.21-1.29-3.32
				C26.84,24.06,26.11,24.25,26.29,24.7L26.29,24.7z"/>
		</g>
	</g>
	<g>
		<g>
			<path class="st1" d="M26.27,25.57c0.45,1.09,0.9,2.18,1.36,3.26c0.18,0.44,0.91,0.25,0.72-0.2c-0.45-1.09-0.9-2.18-1.36-3.26
				C26.81,24.93,26.09,25.12,26.27,25.57L26.27,25.57z"/>
		</g>
	</g>
	<g>
		<g>
			<path class="st1" d="M26.08,25.84c0.29,1.09,0.71,2.13,1.24,3.12c0.23,0.42,0.88,0.05,0.65-0.38c-0.51-0.94-0.89-1.91-1.17-2.94
				C26.68,25.17,25.96,25.37,26.08,25.84L26.08,25.84z"/>
		</g>
	</g>
	<g>
		<g>
			<path class="st1" d="M25.94,25.94c0.59,1.48,1.18,2.96,1.77,4.44c0.18,0.44,0.9,0.25,0.72-0.2c-0.59-1.48-1.18-2.96-1.77-4.44
				C26.49,25.29,25.76,25.49,25.94,25.94L25.94,25.94z"/>
		</g>
	</g>
	<g>
		<g>
			<path class="st1" d="M26.65,28.77c0.39,0.88,0.78,1.76,1.16,2.63c0.19,0.44,0.84,0.06,0.65-0.38c-0.39-0.88-0.78-1.76-1.16-2.63
				C27.11,27.96,26.46,28.34,26.65,28.77L26.65,28.77z"/>
		</g>
	</g>
	<g>
		<g>
			<path class="st1" d="M26.49,29.28c0.47,1.07,0.94,2.14,1.41,3.21c0.19,0.44,0.84,0.06,0.65-0.38c-0.47-1.07-0.94-2.14-1.41-3.21
				C26.95,28.46,26.3,28.84,26.49,29.28L26.49,29.28z"/>
		</g>
	</g>
	<g>
		<g>
			<path class="st1" d="M26.39,30.01c0.55,1.03,1.09,2.05,1.64,3.08c0.23,0.43,0.87,0.05,0.65-0.38c-0.55-1.03-1.09-2.05-1.64-3.08
				C26.81,29.21,26.17,29.59,26.39,30.01L26.39,30.01z"/>
		</g>
	</g>
	<g>
		<g>
			<path class="st1" d="M26.45,30.37c0.78,1.54,1.56,3.09,2.33,4.63c0.22,0.43,0.86,0.05,0.65-0.38c-0.78-1.54-1.56-3.09-2.33-4.63
				C26.88,29.56,26.23,29.94,26.45,30.37L26.45,30.37z"/>
		</g>
	</g>
	<g>
		<g>
			<path class="st1" d="M27.3,30.83c0.62,1.3,1.24,2.6,1.87,3.89c0.21,0.44,0.86,0.06,0.65-0.38c-0.62-1.3-1.24-2.6-1.87-3.89
				C27.74,30.02,27.09,30.4,27.3,30.83L27.3,30.83z"/>
		</g>
	</g>
	<g>
		<g>
			<path class="st1" d="M27.44,30.06c0.87,1.71,1.74,3.42,2.61,5.13c0.22,0.43,0.87,0.05,0.65-0.38c-0.87-1.71-1.74-3.42-2.61-5.13
				C27.87,29.25,27.22,29.63,27.44,30.06L27.44,30.06z"/>
		</g>
	</g>
	<g>
		<g>
			<path class="st1" d="M28.05,29.79c0.84,1.8,1.69,3.6,2.53,5.4c0.2,0.44,0.85,0.06,0.65-0.38c-0.84-1.8-1.69-3.6-2.53-5.4
				C28.5,28.98,27.85,29.36,28.05,29.79L28.05,29.79z"/>
		</g>
	</g>
	<g>
		<g>
			<path class="st1" d="M28.57,30.01c0.84,1.57,1.68,3.15,2.51,4.72c0.23,0.43,0.87,0.05,0.65-0.38c-0.84-1.57-1.68-3.15-2.51-4.72
				C28.99,29.21,28.34,29.59,28.57,30.01L28.57,30.01z"/>
		</g>
	</g>
	<g>
		<g>
			<path class="st1" d="M28.62,29.85c1.07,2.14,2.15,4.29,3.22,6.43c0.22,0.43,0.86,0.05,0.65-0.38c-1.07-2.14-2.15-4.29-3.22-6.43
				C29.06,29.04,28.41,29.42,28.62,29.85L28.62,29.85z"/>
		</g>
	</g>
	<g>
		<g>
			<path class="st1" d="M27.59,28.26c0.57,0.98,1.14,1.95,1.71,2.93c0.24,0.42,0.89,0.04,0.65-0.38c-0.57-0.98-1.14-1.95-1.71-2.93
				C28,27.47,27.35,27.84,27.59,28.26L27.59,28.26z"/>
		</g>
	</g>
	<g>
		<g>
			<path class="st1" d="M27.67,27.84c0.31,0.77,0.62,1.53,0.93,2.3c0.18,0.44,0.91,0.25,0.72-0.2c-0.31-0.77-0.62-1.53-0.93-2.3
				C28.22,27.2,27.49,27.39,27.67,27.84L27.67,27.84z"/>
		</g>
	</g>
	<g>
		<g>
			<path class="st1" d="M27.52,28.18c0.77,1.19,1.55,2.38,2.36,3.55c0.27,0.4,0.92,0.02,0.65-0.38c-0.8-1.17-1.59-2.36-2.36-3.55
				C27.91,27.39,27.26,27.77,27.52,28.18L27.52,28.18z"/>
		</g>
	</g>
	<g>
		<g>
			<path class="st1" d="M28.37,27.85c0.73,1.41,1.46,2.82,2.2,4.23c0.22,0.43,0.87,0.05,0.65-0.38c-0.73-1.41-1.46-2.82-2.2-4.23
				C28.8,27.04,28.15,27.42,28.37,27.85L28.37,27.85z"/>
		</g>
	</g>
	<g>
		<g>
			<path class="st1" d="M28.85,28.2c0.74,1.19,1.48,2.38,2.22,3.58c0.25,0.41,0.9,0.03,0.65-0.38c-0.74-1.19-1.48-2.38-2.22-3.58
				C29.25,27.41,28.6,27.78,28.85,28.2L28.85,28.2z"/>
		</g>
	</g>
	<g>
		<g>
			<path class="st1" d="M29.84,28.77c0.46,0.91,0.93,1.82,1.39,2.73c0.22,0.43,0.87,0.05,0.65-0.38c-0.46-0.91-0.93-1.82-1.39-2.73
				C30.27,27.96,29.62,28.34,29.84,28.77L29.84,28.77z"/>
		</g>
	</g>
	<g>
		<g>
			<path class="st1" d="M27.64,28.6c0.33,0.56,0.66,1.12,1,1.68c0.25,0.41,0.9,0.04,0.65-0.38c-0.33-0.56-0.66-1.12-1-1.68
				C28.04,27.8,27.4,28.18,27.64,28.6L27.64,28.6z"/>
		</g>
	</g>
	<g>
		<g>
			<path class="st1" d="M27.81,28.63c0.94,2.5,2.1,4.88,3.51,7.15c0.25,0.41,0.9,0.03,0.65-0.38c-1.37-2.21-2.52-4.53-3.43-6.97
				C28.37,27.99,27.64,28.18,27.81,28.63L27.81,28.63z"/>
		</g>
	</g>
	<g>
		<g>
			<path class="st1" d="M30.59,33.35c0.42,0.7,0.84,1.39,1.26,2.09c0.25,0.41,0.9,0.04,0.65-0.38c-0.42-0.7-0.84-1.39-1.26-2.09
				C30.99,32.56,30.34,32.93,30.59,33.35L30.59,33.35z"/>
		</g>
	</g>
	<g>
		<g>
			<path class="st1" d="M30.74,32.75c0.37,0.62,0.74,1.25,1.11,1.87c0.25,0.41,0.89,0.04,0.65-0.38c-0.37-0.62-0.74-1.25-1.11-1.87
				C31.14,31.96,30.49,32.34,30.74,32.75L30.74,32.75z"/>
		</g>
	</g>
	<g>
		<g>
			<path class="st1" d="M30.93,32.59c0.34,0.64,0.69,1.27,1.03,1.91c0.23,0.42,0.88,0.05,0.65-0.38c-0.34-0.64-0.69-1.27-1.03-1.91
				C31.35,31.79,30.7,32.17,30.93,32.59L30.93,32.59z"/>
		</g>
	</g>
	<g>
		<g>
			<path class="st1" d="M31.25,32.95c0.5,0.92,1,1.84,1.49,2.76c0.23,0.42,0.88,0.05,0.65-0.38c-0.5-0.92-1-1.84-1.49-2.76
				C31.67,32.15,31.02,32.53,31.25,32.95L31.25,32.95z"/>
		</g>
	</g>
	<g>
		<g>
			<path class="st1" d="M24.02,19.47c0.81,1.51,1.62,3.02,2.43,4.53c0.23,0.43,0.88,0.05,0.65-0.38c-0.81-1.51-1.62-3.02-2.43-4.53
				C24.44,18.67,23.79,19.05,24.02,19.47L24.02,19.47z"/>
		</g>
	</g>
	<g>
		<g>
			<path class="st1" d="M23.88,19.11c1.22,1.7,2.28,3.48,3.2,5.36c0.21,0.43,0.86,0.05,0.65-0.38c-0.91-1.88-1.98-3.66-3.2-5.36
				C24.25,18.35,23.6,18.72,23.88,19.11L23.88,19.11z"/>
		</g>
	</g>
	<g>
		<g>
			<path class="st1" d="M23.74,19.25c1.47,1.84,2.73,3.81,3.8,5.9c0.22,0.43,0.87,0.05,0.65-0.38c-1.1-2.16-2.41-4.17-3.92-6.06
				C23.97,18.34,23.44,18.88,23.74,19.25L23.74,19.25z"/>
		</g>
	</g>
	<g>
		<g>
			<path class="st1" d="M21.5,11.93c0.48,0,0.48-0.75,0-0.75C21.02,11.18,21.02,11.93,21.5,11.93L21.5,11.93z"/>
		</g>
	</g>
	<g>
		<g>
			<path class="st2" d="M34.18,36.66c-0.12,0.4-0.25,0.79-0.37,1.19c-0.14,0.46,0.58,0.66,0.72,0.2c0.12-0.4,0.25-0.79,0.37-1.19
				C35.04,36.4,34.32,36.2,34.18,36.66L34.18,36.66z"/>
		</g>
	</g>
	<g>
		<g>
			<path class="st2" d="M30.36,38.99c0.73,0.2,1.46,0.41,2.19,0.61c0.47,0.13,0.66-0.59,0.2-0.72c-0.73-0.2-1.46-0.41-2.19-0.61
				C30.1,38.14,29.9,38.86,30.36,38.99L30.36,38.99z"/>
		</g>
	</g>
	<g>
		<g>
			<path class="st2" d="M31.47,39.42c0.89,1.74,1.77,3.47,2.66,5.21c0.22,0.43,0.87,0.05,0.65-0.38c-0.89-1.74-1.77-3.47-2.66-5.21
				C31.9,38.61,31.26,38.99,31.47,39.42L31.47,39.42z"/>
		</g>
	</g>
	<g>
		<g>
			<path class="st2" d="M34.2,44.65c0.56,1.32,1.12,2.64,1.69,3.97c0.19,0.44,0.83,0.06,0.65-0.38c-0.56-1.32-1.12-2.64-1.69-3.97
				C34.66,43.83,34.01,44.21,34.2,44.65L34.2,44.65z"/>
		</g>
	</g>
	<g>
		<g>
			<path class="st2" d="M34.04,38.14c1.11,2.01,2.23,4.02,3.34,6.03c0.23,0.42,0.88,0.04,0.65-0.38c-1.11-2.01-2.23-4.02-3.34-6.03
				C34.45,37.33,33.81,37.71,34.04,38.14L34.04,38.14z"/>
		</g>
	</g>
	<g>
		<g>
			<path class="st2" d="M37.54,44.31c0.94,1.64,1.89,3.28,2.83,4.92c0.24,0.42,0.89,0.04,0.65-0.38c-0.94-1.64-1.89-3.28-2.83-4.92
				C37.94,43.51,37.3,43.89,37.54,44.31L37.54,44.31z"/>
		</g>
	</g>
	<g>
		<g>
			<path class="st2" d="M40.3,49.1c0.23,0.32,0.46,0.64,0.69,0.97c0.28,0.39,0.93,0.02,0.65-0.38c-0.23-0.32-0.46-0.64-0.69-0.97
				C40.67,48.33,40.02,48.71,40.3,49.1L40.3,49.1z"/>
		</g>
	</g>
	<g>
		<g>
			<path class="st2" d="M40.81,49.85c0.3,0.47,0.59,0.94,0.89,1.4c0.26,0.41,0.91,0.03,0.65-0.38c-0.3-0.47-0.59-0.94-0.89-1.4
				C41.2,49.07,40.55,49.44,40.81,49.85L40.81,49.85z"/>
		</g>
	</g>
	<g>
		<g>
			<path class="st2" d="M36.14,48.41c1.36,0.79,2.82,1.32,4.38,1.58c0.47,0.08,0.67-0.64,0.2-0.72c-1.49-0.26-2.88-0.75-4.2-1.51
				C36.1,47.52,35.73,48.17,36.14,48.41L36.14,48.41z"/>
		</g>
	</g>
	<g>
		<g>
			<path class="st2" d="M31.68,38.74c0.88-0.26,1.71-0.63,2.49-1.1c0.41-0.25,0.04-0.9-0.38-0.65c-0.73,0.44-1.49,0.78-2.31,1.02
				C31.02,38.15,31.21,38.88,31.68,38.74L31.68,38.74z"/>
		</g>
	</g>
	<g>
		<g>
			<path class="st2" d="M32.65,39.68c0.71,0.07,1.41,0.14,2.12,0.2c0.48,0.05,0.48-0.7,0-0.75c-0.71-0.07-1.41-0.14-2.12-0.2
				C32.17,38.89,32.17,39.64,32.65,39.68L32.65,39.68z"/>
		</g>
	</g>
	<g>
		<g>
			<path class="st2" d="M32.91,41.16c0.95,0.13,1.89,0.26,2.84,0.39c0.47,0.06,0.68-0.66,0.2-0.72c-0.95-0.13-1.89-0.26-2.84-0.39
				C32.64,40.37,32.43,41.09,32.91,41.16L32.91,41.16z"/>
		</g>
	</g>
	<g>
		<g>
			<path class="st2" d="M33.74,42.66c0.84,0.3,1.7,0.52,2.58,0.64c0.47,0.06,0.68-0.66,0.2-0.72c-0.88-0.12-1.74-0.33-2.58-0.64
				C33.48,41.77,33.29,42.49,33.74,42.66L33.74,42.66z"/>
		</g>
	</g>
	<g>
		<g>
			<path class="st2" d="M32.03,38.91c0.63,1.32,1.26,2.64,1.88,3.96c0.21,0.44,0.85,0.06,0.65-0.38c-0.63-1.32-1.26-2.64-1.88-3.96
				C32.47,38.09,31.82,38.47,32.03,38.91L32.03,38.91z"/>
		</g>
	</g>
	<g>
		<g>
			<path class="st2" d="M32.46,37.67c0.65,1.63,1.3,3.26,1.95,4.9c0.18,0.44,0.9,0.25,0.72-0.2c-0.65-1.63-1.3-3.26-1.95-4.9
				C33.01,37.03,32.28,37.22,32.46,37.67L32.46,37.67z"/>
		</g>
	</g>
	<g>
		<g>
			<path class="st2" d="M32.4,38.25c0.65,1.88,1.5,3.68,2.54,5.38c0.25,0.41,0.9,0.03,0.65-0.38c-1.01-1.65-1.83-3.38-2.46-5.2
				C32.96,37.6,32.24,37.8,32.4,38.25L32.4,38.25z"/>
		</g>
	</g>
	<g>
		<g>
			<path class="st2" d="M33.82,38.47c0.36,1.94,1.05,3.76,2.07,5.45c0.25,0.41,0.9,0.04,0.65-0.38c-0.99-1.64-1.65-3.39-2-5.28
				C34.46,37.8,33.73,38,33.82,38.47L33.82,38.47z"/>
		</g>
	</g>
	<g>
		<g>
			<path class="st2" d="M33.25,37.99c0.38,1.4,0.77,2.81,1.15,4.21c0.13,0.46,0.85,0.27,0.72-0.2c-0.38-1.4-0.77-2.81-1.15-4.21
				C33.85,37.33,33.13,37.52,33.25,37.99L33.25,37.99z"/>
		</g>
	</g>
	<g>
		<g>
			<path class="st2" d="M33.92,39.44c0.78,1.51,1.56,3.03,2.33,4.54c0.22,0.43,0.87,0.05,0.65-0.38c-0.78-1.51-1.56-3.03-2.33-4.54
				C34.34,38.63,33.69,39.01,33.92,39.44L33.92,39.44z"/>
		</g>
	</g>
	<g>
		<g>
			<path class="st2" d="M33.85,38.66c0.84,1.65,1.68,3.29,2.52,4.94c0.22,0.43,0.87,0.05,0.65-0.38c-0.84-1.65-1.68-3.29-2.52-4.94
				C34.28,37.86,33.63,38.23,33.85,38.66L33.85,38.66z"/>
		</g>
	</g>
	<g>
		<g>
			<path class="st2" d="M34.06,42.27c0.52,1.46,1.04,2.92,1.56,4.37c0.16,0.45,0.89,0.26,0.72-0.2c-0.52-1.46-1.04-2.92-1.56-4.37
				C34.62,41.62,33.9,41.81,34.06,42.27L34.06,42.27z"/>
		</g>
	</g>
	<g>
		<g>
			<path class="st2" d="M33.78,42.96c0.84,1.47,1.68,2.93,2.52,4.4c0.24,0.42,0.89,0.04,0.65-0.38c-0.84-1.47-1.68-2.93-2.52-4.4
				C34.19,42.16,33.54,42.54,33.78,42.96L33.78,42.96z"/>
		</g>
	</g>
	<g>
		<g>
			<path class="st2" d="M35.2,43.62c0.86,1.66,1.73,3.33,2.59,4.99c0.22,0.43,0.87,0.05,0.65-0.38c-0.86-1.66-1.73-3.33-2.59-4.99
				C35.63,42.82,34.98,43.2,35.2,43.62L35.2,43.62z"/>
		</g>
	</g>
	<g>
		<g>
			<path class="st2" d="M35.56,44.59c0.44,1.28,0.88,2.55,1.32,3.83c0.16,0.45,0.88,0.26,0.72-0.2c-0.44-1.28-0.88-2.55-1.32-3.83
				C36.13,43.94,35.41,44.13,35.56,44.59L35.56,44.59z"/>
		</g>
	</g>
	<g>
		<g>
			<path class="st2" d="M35.3,45.74c0.32,0.89,0.63,1.78,0.95,2.68c0.16,0.45,0.88,0.26,0.72-0.2c-0.32-0.89-0.63-1.78-0.95-2.68
				C35.87,45.09,35.14,45.28,35.3,45.74L35.3,45.74z"/>
		</g>
	</g>
	<g>
		<g>
			<path class="st2" d="M35.8,43.67c0.96,1.58,1.92,3.17,2.88,4.75c0.25,0.41,0.9,0.04,0.65-0.38c-0.96-1.58-1.92-3.17-2.88-4.75
				C36.2,42.87,35.55,43.25,35.8,43.67L35.8,43.67z"/>
		</g>
	</g>
	<g>
		<g>
			<path class="st2" d="M36.37,43.38c1.08,1.95,2.28,3.82,3.61,5.61c0.28,0.38,0.94,0.01,0.65-0.38c-1.33-1.79-2.53-3.66-3.61-5.61
				C36.78,42.58,36.13,42.96,36.37,43.38L36.37,43.38z"/>
		</g>
	</g>
	<g>
		<g>
			<path class="st2" d="M37.42,46.64c0.45,1.12,1.02,2.17,1.72,3.15c0.28,0.39,0.93,0.02,0.65-0.38c-0.66-0.93-1.21-1.91-1.64-2.97
				C37.97,46,37.24,46.19,37.42,46.64L37.42,46.64z"/>
		</g>
	</g>
	<g>
		<g>
			<path class="st2" d="M38.38,47.7c0.48,0.62,0.96,1.25,1.45,1.87c0.29,0.38,0.82-0.15,0.53-0.53c-0.48-0.62-0.96-1.25-1.45-1.87
				C38.62,46.78,38.09,47.32,38.38,47.7L38.38,47.7z"/>
		</g>
	</g>
	<g>
		<g>
			<path class="st2" d="M39.15,48.29c0.43,0.55,0.85,1.11,1.28,1.66c0.29,0.38,0.94,0,0.65-0.38c-0.43-0.55-0.85-1.11-1.28-1.66
				C39.5,47.53,38.85,47.91,39.15,48.29L39.15,48.29z"/>
		</g>
	</g>
	<g>
		<g>
			<path class="st2" d="M39.27,48.64c0.42,0.44,0.85,0.88,1.27,1.32c0.34,0.35,0.87-0.18,0.53-0.53c-0.42-0.44-0.85-0.88-1.27-1.32
				C39.47,47.76,38.94,48.29,39.27,48.64L39.27,48.64z"/>
		</g>
	</g>
</g>
<g id="Calque_1">
	<g>
		<g>
			<path class="st3" d="M27,36.37c0.48,0,0.48-0.75,0-0.75C26.52,35.62,26.52,36.37,27,36.37L27,36.37z"/>
		</g>
	</g>
	<g>
		<g>
			<path class="st3" d="M26.77,36.32c1.22,0.64,2.53,0.95,3.91,0.92c0.48-0.01,0.48-0.76,0-0.75c-1.25,0.03-2.42-0.23-3.53-0.82
				C26.73,35.45,26.35,36.09,26.77,36.32L26.77,36.32z"/>
		</g>
	</g>
	<g>
		<g>
			<path class="st3" d="M30.12,37.27c0.92,0.06,1.8-0.18,2.56-0.69c0.4-0.27,0.02-0.92-0.38-0.65c-0.66,0.45-1.39,0.64-2.19,0.59
				C29.64,36.49,29.64,37.24,30.12,37.27L30.12,37.27z"/>
		</g>
	</g>
	<g>
		<g>
			<path class="st3" d="M34.86,33.48c-0.42,0.82-1,1.52-1.75,2.06c-0.39,0.28-0.01,0.93,0.38,0.65c0.86-0.61,1.54-1.39,2.02-2.33
				C35.73,33.43,35.08,33.05,34.86,33.48L34.86,33.48z"/>
		</g>
	</g>
	<g>
		<g>
			<path class="st3" d="M33.07,35.58c-0.2,0.13-0.41,0.25-0.64,0.34c-0.44,0.18-0.25,0.91,0.2,0.72c0.29-0.12,0.56-0.25,0.82-0.42
				C33.85,35.96,33.47,35.31,33.07,35.58L33.07,35.58z"/>
		</g>
	</g>
	<g>
		<g>
			<path class="st3" d="M26.06,38.37c0-0.01,0-0.01,0-0.02c0-0.48-0.75-0.48-0.75,0c0,0.01,0,0.01,0,0.02
				C25.31,38.85,26.06,38.85,26.06,38.37L26.06,38.37z"/>
		</g>
	</g>
	<g>
		<g>
			<path class="st3" d="M25.79,38.71c0.8-0.32,1.58-0.69,2.33-1.13c0.42-0.24,0.04-0.89-0.38-0.65c-0.69,0.4-1.41,0.76-2.15,1.05
				C25.15,38.17,25.34,38.89,25.79,38.71L25.79,38.71z"/>
		</g>
	</g>
	<g>
		<g>
			<path class="st3" d="M25.41,40.25c0.49-0.2,0.98-0.39,1.47-0.59c0.44-0.18,0.25-0.9-0.2-0.72c-0.49,0.2-0.98,0.39-1.47,0.59
				C24.77,39.71,24.96,40.43,25.41,40.25L25.41,40.25z"/>
		</g>
	</g>
	<g>
		<g>
			<path class="st3" d="M25.87,38.96c0.41,0.23,0.83,0.33,1.3,0.3c0.48-0.04,0.48-0.79,0-0.75c-0.34,0.03-0.62-0.03-0.92-0.19
				C25.83,38.08,25.45,38.72,25.87,38.96L25.87,38.96z"/>
		</g>
	</g>
	<g>
		<g>
			<path class="st3" d="M28.62,39.02c0.59,0.14,1.14,0.06,1.67-0.23c0.42-0.23,0.04-0.88-0.38-0.65c-0.35,0.19-0.7,0.24-1.09,0.15
				C28.35,38.18,28.15,38.91,28.62,39.02L28.62,39.02z"/>
		</g>
	</g>
	<g>
		<g>
			<path class="st4" d="M23.7,37.9c0.92,0.53,1.99,0.56,2.94,0.09c0.43-0.21,0.05-0.86-0.38-0.65c-0.71,0.35-1.5,0.3-2.18-0.09
				C23.66,37.01,23.28,37.66,23.7,37.9L23.7,37.9z"/>
		</g>
	</g>
	<g>
		<g>
			<path class="st4" d="M26.69,37.88c0.3-0.15,0.6-0.31,0.91-0.46c0.43-0.22,0.05-0.87-0.38-0.65c-0.3,0.15-0.6,0.31-0.91,0.46
				C25.88,37.45,26.26,38.1,26.69,37.88L26.69,37.88z"/>
		</g>
	</g>
	<g>
		<g>
			<path class="st4" d="M26.81,37.89c0.28-0.16,0.56-0.32,0.84-0.47c0.42-0.24,0.04-0.88-0.38-0.65c-0.28,0.16-0.56,0.32-0.84,0.47
				C26.01,37.48,26.39,38.13,26.81,37.89L26.81,37.89z"/>
		</g>
	</g>
	<g>
		<g>
			<path class="st4" d="M24.23,37.77c0.81-0.35,1.62-0.71,2.43-1.06c0.44-0.19,0.06-0.84-0.38-0.65c-0.81,0.35-1.62,0.71-2.43,1.06
				C23.41,37.31,23.79,37.96,24.23,37.77L24.23,37.77z"/>
		</g>
	</g>
	<g>
		<g>
			<path class="st4" d="M20.07,39.78c0.71,0.4,1.52,0.48,2.29,0.2c0.45-0.16,0.26-0.89-0.2-0.72c-0.59,0.21-1.17,0.18-1.72-0.12
				C20.03,38.9,19.65,39.55,20.07,39.78L20.07,39.78z"/>
		</g>
	</g>
	<g>
		<g>
			<path class="st4" d="M20.45,39.7c1.31-0.34,2.56-0.83,3.75-1.45c0.43-0.22,0.05-0.87-0.38-0.65c-1.14,0.6-2.33,1.06-3.57,1.38
				C19.79,39.1,19.99,39.83,20.45,39.7L20.45,39.7z"/>
		</g>
	</g>
	<g>
		<g>
			<path class="st4" d="M21.93,39.88c0.84-0.4,1.69-0.8,2.53-1.2c0.44-0.21,0.06-0.85-0.38-0.65c-0.84,0.4-1.69,0.8-2.53,1.2
				C21.12,39.44,21.5,40.09,21.93,39.88L21.93,39.88z"/>
		</g>
	</g>
	<g>
		<g>
			<path class="st4" d="M23.48,40.44c1.01-0.04,1.92-0.4,2.69-1.06c0.37-0.31-0.16-0.84-0.53-0.53c-0.61,0.52-1.36,0.8-2.16,0.84
				C23,39.71,23,40.46,23.48,40.44L23.48,40.44z"/>
		</g>
	</g>
	<g>
		<g>
			<path class="st4" d="M23.76,40.33c0.61-0.27,1.23-0.55,1.84-0.82c0.44-0.2,0.06-0.84-0.38-0.65c-0.61,0.27-1.23,0.55-1.84,0.82
				C22.94,39.88,23.32,40.53,23.76,40.33L23.76,40.33z"/>
		</g>
	</g>
	<g>
		<g>
			<path class="st4" d="M26.54,38.94c1.14-0.1,2.15-0.52,3.03-1.25c0.37-0.31-0.16-0.84-0.53-0.53c-0.71,0.6-1.57,0.95-2.5,1.03
				C26.07,38.23,26.06,38.98,26.54,38.94L26.54,38.94z"/>
		</g>
	</g>
	<g>
		<g>
			<path class="st4" d="M25.97,40.62c0.51,0.14,0.94,0,1.4-0.22c0.58-0.28,1.17-0.54,1.75-0.83c0.43-0.22,0.05-0.86-0.38-0.65
				c-0.43,0.22-0.86,0.41-1.3,0.61c-0.41,0.19-0.81,0.5-1.27,0.37C25.7,39.77,25.5,40.5,25.97,40.62L25.97,40.62z"/>
		</g>
	</g>
	<g>
		<g>
			<path class="st4" d="M30.27,38.89c1.62-0.79,3.24-1.58,4.86-2.37c0.43-0.21,0.05-0.86-0.38-0.65c-1.62,0.79-3.24,1.58-4.86,2.37
				C29.45,38.45,29.83,39.1,30.27,38.89L30.27,38.89z"/>
		</g>
	</g>
	<g>
		<g>
			<path class="st4" d="M35.05,36.53c0.01-0.03,0.03-0.05,0.04-0.08c0.22-0.43-0.43-0.81-0.65-0.38c-0.01,0.03-0.03,0.05-0.04,0.08
				C34.19,36.58,34.83,36.97,35.05,36.53L35.05,36.53z"/>
		</g>
	</g>
	<g>
		<g>
			<path class="st4" d="M35.18,36.51c0.24-0.17,0.47-0.34,0.71-0.5c0.39-0.28,0.02-0.93-0.38-0.65c-0.24,0.17-0.47,0.34-0.71,0.5
				C34.42,36.13,34.79,36.79,35.18,36.51L35.18,36.51z"/>
		</g>
	</g>
	<g>
		<g>
			<path class="st4" d="M29.37,32.15c0.08,0.23,0.16,0.45,0.24,0.68c0.16,0.45,0.89,0.26,0.72-0.2c-0.08-0.23-0.16-0.45-0.24-0.68
				C29.93,31.5,29.2,31.7,29.37,32.15L29.37,32.15z"/>
		</g>
	</g>
	<g>
		<g>
			<path class="st4" d="M30.21,33.15c0.43-0.22,0.95-0.4,1.41-0.16c0.59,0.3,0.52,0.92,0.09,1.32c-0.67,0.63-1.72,0.5-2.42,0.01
				c-0.39-0.28-0.77,0.37-0.38,0.65c1.17,0.83,3.33,0.68,3.84-0.9c0.21-0.64-0.06-1.31-0.63-1.67c-0.72-0.46-1.57-0.27-2.29,0.1
				C29.4,32.72,29.78,33.37,30.21,33.15L30.21,33.15z"/>
		</g>
	</g>
	<g>
		<g>
			<path class="st4" d="M27.24,36.06c0.53-0.28,1.05-0.57,1.58-0.85c0.43-0.23,0.05-0.88-0.38-0.65c-0.53,0.28-1.05,0.57-1.58,0.85
				C26.43,35.64,26.81,36.29,27.24,36.06L27.24,36.06z"/>
		</g>
	</g>
	<g>
		<g>
			<path class="st4" d="M26.79,36.14c1.51,0.79,3.17,0.83,4.72,0.12c0.44-0.2,0.06-0.85-0.38-0.65c-1.29,0.59-2.71,0.54-3.96-0.12
				C26.75,35.26,26.37,35.91,26.79,36.14L26.79,36.14z"/>
		</g>
	</g>
	<g>
		<g>
			<path class="st4" d="M29.51,36.87c1.94-0.14,3.68-0.96,5.01-2.37c0.33-0.35-0.2-0.88-0.53-0.53c-1.2,1.27-2.74,2.03-4.48,2.15
				C29.03,36.16,29.02,36.91,29.51,36.87L29.51,36.87z"/>
		</g>
	</g>
	<g>
		<g>
			<path class="st4" d="M34.75,33.03c-0.45,0.91-1.22,1.59-2.19,1.91c-0.46,0.15-0.26,0.87,0.2,0.72c1.15-0.37,2.1-1.17,2.64-2.25
				C35.61,32.98,34.96,32.6,34.75,33.03L34.75,33.03z"/>
		</g>
	</g>
	<g>
		<g>
			<path class="st4" d="M29.87,32.27c1.2-0.62,2.41-1.24,3.61-1.86c0.43-0.22,0.05-0.87-0.38-0.65c-1.2,0.62-2.41,1.24-3.61,1.86
				C29.06,31.84,29.44,32.49,29.87,32.27L29.87,32.27z"/>
		</g>
	</g>
	<g>
		<g>
			<path class="st4" d="M33.05,30.29c0.24,1.18,1.13,2.02,1.64,3.08c0.21,0.43,0.86,0.05,0.65-0.38C34.86,32,34,31.2,33.78,30.09
				C33.68,29.62,32.96,29.82,33.05,30.29L33.05,30.29z"/>
		</g>
	</g>
	<g>
		<g>
			<path class="st4" d="M30.48,32.47c0.93-0.45,1.85-0.9,2.78-1.35c0.43-0.21,0.05-0.86-0.38-0.65c-0.93,0.45-1.85,0.9-2.78,1.35
				C29.66,32.03,30.04,32.68,30.48,32.47L30.48,32.47z"/>
		</g>
	</g>
	<g>
		<g>
			<path class="st4" d="M30.5,32.06c0.36,0.33,0.95,0.82,1.48,0.75c0.57-0.08,0.57-0.68,0.34-1.08c-0.21-0.37-0.79-0.12-0.69,0.29
				c0.13,0.49,0.33,0.93,0.62,1.35c0.15,0.21,0.52,0.28,0.65,0c0.02-0.04,0.04-0.08,0.06-0.12c0.2-0.44-0.45-0.82-0.65-0.38
				c-0.02,0.04-0.04,0.08-0.06,0.12c0.22,0,0.43,0,0.65,0c-0.26-0.37-0.43-0.73-0.55-1.17c-0.23,0.1-0.46,0.19-0.69,0.29
				c0.01,0.04,0.02,0.07,0.03,0.11c0.07-0.06,0.15-0.11,0.22-0.17c-0.25,0.09-0.75-0.37-0.9-0.51C30.67,31.2,30.14,31.73,30.5,32.06
				L30.5,32.06z"/>
		</g>
	</g>
	<g>
		<g>
			<path class="st4" d="M31.75,31.43c0.15,0.72,0.42,1.39,0.81,2.01c0.24,0.38,0.75,0.12,0.69-0.29c-0.03-0.17-0.05-0.34-0.08-0.51
				c-0.07-0.48-0.79-0.27-0.72,0.2c0.03,0.17,0.05,0.34,0.08,0.51c0.23-0.1,0.46-0.19,0.69-0.29c-0.36-0.57-0.6-1.17-0.73-1.83
				C32.37,30.76,31.65,30.96,31.75,31.43L31.75,31.43z"/>
		</g>
	</g>
	<g>
		<g>
			<path class="st4" d="M32.7,31.51c0.03-0.02,0.06-0.03,0.09-0.05c-0.18-0.07-0.37-0.15-0.55-0.22c0.2,0.49,0.41,0.99,0.61,1.48
				c0.14,0.35,0.79,0.36,0.74-0.1c-0.05-0.42-0.09-0.84-0.14-1.27c-0.23,0.06-0.47,0.13-0.7,0.19c0.18,0.41,0.37,0.82,0.55,1.23
				c0.17,0.37,0.67,0.14,0.7-0.19c0.05-0.63-0.01-1.24-0.17-1.85c-0.24,0.07-0.48,0.13-0.72,0.2c0.15,0.56,0.3,1.12,0.45,1.67
				c0.11,0.39,0.79,0.33,0.74-0.1c-0.03-0.27-0.07-0.55-0.1-0.82c-0.25,0.03-0.49,0.07-0.74,0.1c0.06,0.44,0.13,0.87,0.19,1.31
				c0.21-0.12,0.42-0.24,0.63-0.36c-0.06-0.07-0.11-0.13-0.17-0.2c-0.21-0.25-0.66-0.04-0.64,0.27c0.01,0.27,0.03,0.55,0.04,0.82
				c0.02,0.44,0.58,0.49,0.74,0.1c0.03-0.08,0.06-0.16,0.09-0.24c0.18-0.45-0.55-0.64-0.72-0.2c-0.03,0.08-0.06,0.16-0.09,0.24
				c0.25,0.03,0.49,0.07,0.74,0.1c-0.01-0.27-0.03-0.55-0.04-0.82c-0.21,0.09-0.43,0.18-0.64,0.27c0.06,0.07,0.11,0.13,0.17,0.2
				c0.27,0.33,0.67-0.04,0.63-0.36c-0.06-0.44-0.13-0.87-0.19-1.31c-0.06-0.41-0.79-0.32-0.74,0.1c0.03,0.27,0.07,0.55,0.1,0.82
				c0.25-0.03,0.49-0.07,0.74-0.1c-0.15-0.56-0.3-1.12-0.45-1.67c-0.13-0.47-0.85-0.27-0.72,0.2c0.15,0.55,0.19,1.09,0.15,1.65
				c0.23-0.06,0.47-0.13,0.7-0.19c-0.18-0.41-0.37-0.82-0.55-1.23c-0.15-0.33-0.74-0.17-0.7,0.19c0.05,0.42,0.09,0.84,0.14,1.27
				c0.25-0.03,0.49-0.07,0.74-0.1c-0.2-0.49-0.41-0.99-0.61-1.48c-0.09-0.23-0.32-0.35-0.55-0.22c-0.03,0.02-0.06,0.03-0.09,0.05
				C31.9,31.08,32.28,31.73,32.7,31.51L32.7,31.51z"/>
		</g>
	</g>
	<g>
		<g>
			<path class="st4" d="M33.61,32.5c-0.2,0.44-0.3,1.24,0.4,1.3c0.6,0.06,0.81-0.61,0.53-1.04c-0.2-0.32-0.68-0.18-0.7,0.19
				c-0.02,0.29,0.04,0.5,0.19,0.75c0.22,0.37,0.77,0.12,0.69-0.29c-0.04-0.19-0.08-0.39-0.12-0.58c-0.07-0.34-0.67-0.37-0.72,0
				c-0.05,0.33,0,0.51,0.21,0.77c0.17,0.2,0.58,0.1,0.63-0.17c0.09-0.57-0.08-0.98-0.54-1.33c-0.18-0.14-0.51,0-0.55,0.22
				c-0.11,0.61-0.21,1.22-0.32,1.83c0.24,0,0.48,0,0.72,0c-0.07-0.42-0.14-0.84-0.2-1.26c-0.07-0.42-0.74-0.31-0.74,0.1
				c0,0.5,0,1,0,1.5c0,0.41,0.67,0.53,0.74,0.1c0.08-0.47-0.02-0.83-0.33-1.19c-0.18-0.2-0.57-0.1-0.63,0.17
				c-0.05,0.25-0.1,0.51-0.15,0.76c0.25,0.03,0.49,0.07,0.74,0.1c0.01-0.44-0.14-0.79-0.46-1.09c-0.19-0.18-0.57-0.13-0.63,0.17
				c-0.05,0.27-0.1,0.54-0.16,0.81c0.23-0.03,0.46-0.06,0.69-0.09c-0.04-0.06-0.08-0.12-0.11-0.17c-0.17-0.26-0.61-0.24-0.69,0.09
				c-0.07,0.28-0.13,0.56-0.2,0.85c-0.11,0.47,0.57,0.66,0.72,0.2c0.05-0.16,0.11-0.32,0.16-0.48c-0.25-0.03-0.49-0.07-0.74-0.1
				c-0.01,0.07-0.02,0.15-0.03,0.22c-0.03,0.27,0.35,0.49,0.56,0.32c0.09-0.07,0.18-0.14,0.28-0.21c-0.18-0.14-0.37-0.28-0.55-0.42
				c-0.02,0.02-0.05,0.05-0.07,0.07c-0.47,0.14-0.27,0.82,0.2,0.72c0.16-0.03,0.33-0.07,0.49-0.1c-0.07-0.24-0.13-0.48-0.2-0.72
				c-0.45,0.18-0.91,0.36-1.36,0.54c-0.44,0.17-0.27,0.87,0.2,0.72c0.06-0.02,0.13-0.04,0.19-0.06c-0.07-0.24-0.13-0.48-0.2-0.72
				c-0.21,0.09-0.42,0.17-0.62,0.26c-0.44,0.18-0.25,0.91,0.2,0.72c0.21-0.09,0.42-0.17,0.62-0.26c0.43-0.18,0.28-0.87-0.2-0.72
				c-0.06,0.02-0.13,0.04-0.19,0.06c0.07,0.24,0.13,0.48,0.2,0.72c0.45-0.18,0.91-0.36,1.36-0.54c0.44-0.17,0.28-0.82-0.2-0.72
				c-0.16,0.03-0.33,0.07-0.49,0.1c0.07,0.24,0.13,0.48,0.2,0.72c0.34-0.1,0.5-0.26,0.6-0.6c0.08-0.29-0.28-0.63-0.55-0.42
				c-0.09,0.07-0.18,0.14-0.28,0.21c0.19,0.11,0.38,0.22,0.56,0.32c0.01-0.07,0.02-0.15,0.03-0.22c0.05-0.44-0.61-0.48-0.74-0.1
				c-0.05,0.16-0.11,0.32-0.16,0.48c0.24,0.07,0.48,0.13,0.72,0.2c0.07-0.28,0.13-0.56,0.2-0.85c-0.23,0.03-0.46,0.06-0.69,0.09
				c0.04,0.06,0.08,0.12,0.11,0.17c0.16,0.25,0.62,0.25,0.69-0.09c0.05-0.27,0.1-0.54,0.16-0.81c-0.21,0.06-0.42,0.11-0.63,0.17
				c0.19,0.13,0.27,0.32,0.24,0.56c-0.01,0.41,0.66,0.52,0.74,0.1c0.05-0.25,0.1-0.51,0.15-0.76c-0.21,0.06-0.42,0.11-0.63,0.17
				c0.05,0.15,0.09,0.31,0.14,0.46c0.25,0.03,0.49,0.07,0.74,0.1c0-0.5,0-1,0-1.5c-0.25,0.03-0.49,0.07-0.74,0.1
				c0.07,0.42,0.14,0.84,0.2,1.26c0.06,0.36,0.66,0.36,0.72,0c0.11-0.61,0.21-1.22,0.32-1.83c-0.18,0.07-0.37,0.15-0.55,0.22
				c0.07,0.16,0.13,0.32,0.2,0.48c0.21-0.06,0.42-0.11,0.63-0.17c-0.01-0.01-0.01-0.03-0.02-0.04c-0.24,0-0.48,0-0.72,0
				c0.04,0.19,0.08,0.39,0.12,0.58c0.23-0.1,0.46-0.19,0.69-0.29c-0.03-0.12-0.06-0.25-0.09-0.37c-0.23,0.06-0.47,0.13-0.7,0.19
				c0.12-0.09,0.24-0.18,0.36-0.26C34.46,32.44,33.81,32.06,33.61,32.5L33.61,32.5z"/>
		</g>
	</g>
	<g>
		<g>
			<path class="st4" d="M28.56,35.34c0.21-0.14,0.43-0.29,0.64-0.43c0.4-0.27,0.02-0.92-0.38-0.65c-0.21,0.14-0.43,0.29-0.64,0.43
				C27.79,34.97,28.16,35.62,28.56,35.34L28.56,35.34z"/>
		</g>
	</g>
	<g>
		<g>
			<path class="st4" d="M28.21,36.12c0.85,0.09,1.69,0.03,2.53-0.14c0.47-0.1,0.27-0.82-0.2-0.72c-0.77,0.16-1.54,0.19-2.33,0.11
				C27.73,35.32,27.73,36.07,28.21,36.12L28.21,36.12z"/>
		</g>
	</g>
	<g>
		<g>
			<path class="st4" d="M28.69,35.75c0.37-0.03,0.67,0.04,0.99,0.23c0.42,0.25,0.79-0.4,0.38-0.65c-0.42-0.25-0.88-0.36-1.37-0.33
				C28.21,35.03,28.21,35.78,28.69,35.75L28.69,35.75z"/>
		</g>
	</g>
	<g>
		<g>
			<path class="st4" d="M24.87,37.88c0.68,0,1.31-0.17,1.9-0.5c0.42-0.24,0.04-0.89-0.38-0.65c-0.48,0.27-0.97,0.4-1.52,0.4
				C24.39,37.13,24.39,37.88,24.87,37.88L24.87,37.88z"/>
		</g>
	</g>
	<g>
		<g>
			<path class="st4" d="M26.39,37.03c0.17,0.1,0.35,0.2,0.52,0.3c0.42,0.24,0.8-0.4,0.38-0.65c-0.17-0.1-0.35-0.2-0.52-0.3
				C26.35,36.14,25.97,36.78,26.39,37.03L26.39,37.03z"/>
		</g>
	</g>
	<g>
		<g>
			<path class="st4" d="M26.31,36.73c0.3,0.3,0.65,0.5,1.07,0.57c0.47,0.08,0.68-0.64,0.2-0.72c-0.3-0.05-0.52-0.16-0.74-0.37
				C26.5,35.86,25.97,36.39,26.31,36.73L26.31,36.73z"/>
		</g>
	</g>
	<g>
		<g>
			<path class="st4" d="M29.26,38.82c0.54,0.19,1.08,0.12,1.57-0.16c0.42-0.24,0.04-0.89-0.38-0.65c-0.33,0.19-0.64,0.2-0.99,0.08
				C29,37.94,28.8,38.66,29.26,38.82L29.26,38.82z"/>
		</g>
	</g>
	<g>
		<g>
			<path class="st4" d="M29.61,38.64c1.16-0.41,2.33-0.82,3.49-1.24c0.45-0.16,0.26-0.88-0.2-0.72c-1.16,0.41-2.33,0.82-3.49,1.24
				C28.96,38.07,29.16,38.8,29.61,38.64L29.61,38.64z"/>
		</g>
	</g>
	<g>
		<g>
			<path class="st4" d="M26.21,40.53c0.8-0.3,1.56-0.67,2.28-1.14c0.4-0.26,0.03-0.91-0.38-0.65c-0.66,0.43-1.36,0.78-2.1,1.06
				C25.56,39.97,25.75,40.7,26.21,40.53L26.21,40.53z"/>
		</g>
	</g>
	<g>
		<g>
			<path class="st4" d="M28.25,39.39c0.14,0.07,0.28,0.14,0.42,0.21c0.43,0.21,0.81-0.43,0.38-0.65c-0.14-0.07-0.28-0.14-0.42-0.21
				C28.2,38.53,27.82,39.18,28.25,39.39L28.25,39.39z"/>
		</g>
	</g>
	<g>
		<g>
			<path class="st4" d="M23.48,40.5c1.11,0.17,1.95-0.4,2.79-1.06c0.38-0.3-0.16-0.83-0.53-0.53c-0.58,0.46-1.26,0.99-2.06,0.87
				C23.21,39.7,23.01,40.42,23.48,40.5L23.48,40.5z"/>
		</g>
	</g>
	<g>
		<g>
			<path class="st4" d="M26.41,38.86c0.81,0.53,2.14-0.37,2.79-0.84c0.39-0.28,0.01-0.93-0.38-0.65c-0.31,0.22-0.62,0.42-0.96,0.58
				c-0.24,0.11-0.8,0.43-1.07,0.26C26.38,37.95,26,38.6,26.41,38.86L26.41,38.86z"/>
		</g>
	</g>
	<g>
		<g>
			<path class="st4" d="M30.23,38.83c0.23-0.05,0.45-0.11,0.68-0.16c0.47-0.11,0.27-0.84-0.2-0.72c-0.23,0.05-0.45,0.11-0.68,0.16
				C29.56,38.23,29.76,38.95,30.23,38.83L30.23,38.83z"/>
		</g>
	</g>
	<g>
		<g>
			<path class="st4" d="M30.17,38.96c1.71-0.59,3.33-1.56,4.95-2.37c0.43-0.21,0.05-0.86-0.38-0.65c-1.56,0.77-3.13,1.72-4.78,2.29
				C29.52,38.4,29.72,39.12,30.17,38.96L30.17,38.96z"/>
		</g>
	</g>
	<g>
		<g>
			<path class="st4" d="M32.73,37.49c0.68-0.31,1.3-0.71,1.88-1.19c0.37-0.31-0.16-0.84-0.53-0.53c-0.53,0.44-1.1,0.79-1.72,1.07
				C31.91,37.05,32.29,37.69,32.73,37.49L32.73,37.49z"/>
		</g>
	</g>
	<g>
		<g>
			<path class="st4" d="M34.96,34.7c0.15,0.39,0.33,0.75,0.56,1.1c0.27,0.4,0.92,0.02,0.65-0.38c-0.19-0.29-0.36-0.59-0.48-0.92
				C35.51,34.05,34.79,34.25,34.96,34.7L34.96,34.7z"/>
		</g>
	</g>
	<g>
		<g>
			<path class="st4" d="M34.91,34.49c-0.34,0.68-0.79,1.24-1.37,1.73c-0.37,0.31,0.16,0.84,0.53,0.53c0.62-0.52,1.12-1.15,1.49-1.88
				C35.78,34.44,35.13,34.06,34.91,34.49L34.91,34.49z"/>
		</g>
	</g>
	<g>
		<g>
			<path class="st4" d="M34.97,35.17c-0.17,0.19-0.33,0.39-0.5,0.58c-0.31,0.36,0.21,0.9,0.53,0.53c0.17-0.19,0.33-0.39,0.5-0.58
				C35.82,35.33,35.29,34.8,34.97,35.17L34.97,35.17z"/>
		</g>
	</g>
	<g>
		<g>
			<path class="st4" d="M30.04,38.35c0.19-0.47,1.19-0.41,1.59-0.45c0.46-0.05,0.88-0.15,1.29-0.35c0.44-0.21,0.06-0.85-0.38-0.65
				c-1.02,0.48-2.7-0.01-3.22,1.25C29.13,38.59,29.85,38.79,30.04,38.35L30.04,38.35z"/>
		</g>
	</g>
	<g>
		<g>
			<path class="st4" d="M26.87,38.84c0.72-0.31,1.38-0.7,2.01-1.17c0.38-0.29,0.01-0.94-0.38-0.65c-0.62,0.47-1.29,0.86-2.01,1.17
				C26.05,38.38,26.43,39.03,26.87,38.84L26.87,38.84z"/>
		</g>
	</g>
	<g>
		<g>
			<path class="st4" d="M28.73,37.69c0.2,0.01,0.4,0.02,0.59,0.03c0.48,0.03,0.48-0.72,0-0.75c-0.2-0.01-0.4-0.02-0.59-0.03
				C28.24,36.91,28.24,37.66,28.73,37.69L28.73,37.69z"/>
		</g>
	</g>
	<g>
		<g>
			<path class="st4" d="M28.35,39.39c0.13,0.03,0.27,0.07,0.4,0.1c0.47,0.12,0.67-0.61,0.2-0.72c-0.13-0.03-0.27-0.07-0.4-0.1
				C28.08,38.55,27.88,39.28,28.35,39.39L28.35,39.39z"/>
		</g>
	</g>
	<g>
		<g>
			<path class="st4" d="M25.51,39.45c0.13,0.03,0.26,0.07,0.38,0.1c0.47,0.12,0.67-0.6,0.2-0.72c-0.13-0.03-0.26-0.07-0.38-0.1
				C25.24,38.61,25.04,39.33,25.51,39.45L25.51,39.45z"/>
		</g>
	</g>
	<g>
		<g>
			<path class="st4" d="M22.14,40.04c0.85-0.39,1.7-0.77,2.55-1.16c0.44-0.2,0.06-0.85-0.38-0.65c-0.85,0.39-1.7,0.77-2.55,1.16
				C21.32,39.59,21.71,40.24,22.14,40.04L22.14,40.04z"/>
		</g>
	</g>
	<g>
		<g>
			<path class="st4" d="M22.38,39.96c0.85-0.36,1.71-0.72,2.56-1.08c0.44-0.19,0.06-0.83-0.38-0.65c-0.85,0.36-1.71,0.72-2.56,1.08
				C21.56,39.5,21.94,40.15,22.38,39.96L22.38,39.96z"/>
		</g>
	</g>
	<g>
		<g>
			<path class="st4" d="M24.89,38.32c0.47,0.34,1.01,0.06,1.48-0.11c0.45-0.16,0.26-0.89-0.2-0.72c-0.23,0.08-0.68,0.35-0.91,0.19
				C24.88,37.39,24.5,38.04,24.89,38.32L24.89,38.32z"/>
		</g>
	</g>
	<g>
		<g>
			<path class="st4" d="M27.58,37.35c0.04,0,0.08,0.01,0.11,0.01c0.48,0.05,0.48-0.7,0-0.75c-0.04,0-0.08-0.01-0.11-0.01
				C27.1,36.54,27.11,37.29,27.58,37.35L27.58,37.35z"/>
		</g>
	</g>
	<g>
		<g>
			<path class="st4" d="M27.51,36.66c-0.08,0.04-0.16,0.07-0.23,0.11c-0.44,0.2-0.06,0.85,0.38,0.65c0.08-0.04,0.16-0.07,0.23-0.11
				C28.33,37.11,27.95,36.46,27.51,36.66L27.51,36.66z"/>
		</g>
	</g>
	<g>
		<g>
			<path class="st4" d="M26.44,38.08c0.1-0.05,0.21-0.09,0.31-0.14c0.44-0.19,0.06-0.84-0.38-0.65c-0.1,0.05-0.21,0.09-0.31,0.14
				C25.62,37.63,26.01,38.28,26.44,38.08L26.44,38.08z"/>
		</g>
	</g>
	<g>
		<g>
			<path class="st4" d="M26.39,38.15c0.61-0.23,1.19-0.5,1.76-0.82c0.42-0.24,0.04-0.89-0.38-0.65c-0.51,0.29-1.03,0.55-1.58,0.75
				C25.74,37.6,25.93,38.32,26.39,38.15L26.39,38.15z"/>
		</g>
	</g>
	<g>
		<g>
			<path class="st4" d="M26.36,36.8c0.49,0.23,0.99,0.42,1.5,0.57c0.46,0.14,0.66-0.59,0.2-0.72c-0.45-0.14-0.89-0.3-1.32-0.5
				C26.3,35.95,25.92,36.6,26.36,36.8L26.36,36.8z"/>
		</g>
	</g>
	<g>
		<g>
			<path class="st4" d="M26.34,38.83c0.03,0.03,0.07,0.07,0.1,0.1c0.34,0.34,0.87-0.19,0.53-0.53c-0.03-0.03-0.07-0.07-0.1-0.1
				C26.53,37.96,26,38.49,26.34,38.83L26.34,38.83z"/>
		</g>
	</g>
	<g>
		<g>
			<path class="st4" d="M26.26,38.73c0.38,0.58,1.01,0.45,1.53,0.12c0.41-0.26,0.03-0.91-0.38-0.65c-0.08,0.05-0.41,0.29-0.5,0.14
				C26.65,37.95,26,38.32,26.26,38.73L26.26,38.73z"/>
		</g>
	</g>
	<g>
		<g>
			<path class="st4" d="M29.75,38.6c0.23-0.27,0.45-0.54,0.68-0.81c0.31-0.37-0.22-0.9-0.53-0.53c-0.23,0.27-0.45,0.54-0.68,0.81
				C28.91,38.44,29.44,38.97,29.75,38.6L29.75,38.6z"/>
		</g>
	</g>
	<g>
		<g>
			<path class="st4" d="M30.32,37.87c1.53-0.23,2.96-0.76,4.26-1.58c0.41-0.26,0.03-0.91-0.38-0.65c-1.26,0.79-2.61,1.29-4.08,1.51
				C29.65,37.22,29.85,37.94,30.32,37.87L30.32,37.87z"/>
		</g>
	</g>
	<g>
		<g>
			<path class="st4" d="M33.35,36.97c0.76-0.51,1.46-1.1,2.08-1.78c0.33-0.35-0.2-0.89-0.53-0.53c-0.58,0.63-1.22,1.18-1.93,1.66
				C32.58,36.6,32.95,37.25,33.35,36.97L33.35,36.97z"/>
		</g>
	</g>
	<g>
		<g>
			<path class="st4" d="M25.93,39.88c-0.08,0.06-0.16,0.11-0.24,0.17c-0.39,0.27-0.02,0.92,0.38,0.65c0.08-0.06,0.16-0.11,0.24-0.17
				C26.7,40.25,26.32,39.6,25.93,39.88L25.93,39.88z"/>
		</g>
	</g>
	<g>
		<g>
			<path class="st3" d="M25.33,39.02c0.48,0,0.48-0.75,0-0.75C24.85,38.27,24.84,39.02,25.33,39.02L25.33,39.02z"/>
		</g>
	</g>
	<g>
		<g>
			<path class="st3" d="M27.47,39.43c0.56-0.13,1.08-0.33,1.58-0.61c0.42-0.23,0.04-0.88-0.38-0.65c-0.45,0.25-0.91,0.42-1.41,0.54
				C26.8,38.81,27,39.54,27.47,39.43L27.47,39.43z"/>
		</g>
	</g>
	<g>
		<g>
			<path class="st3" d="M29.11,37.67c-0.19,0.19-0.39,0.33-0.62,0.45c-0.43,0.22-0.05,0.87,0.38,0.65c0.29-0.15,0.54-0.34,0.78-0.57
				C29.98,37.86,29.45,37.33,29.11,37.67L29.11,37.67z"/>
		</g>
	</g>
	<g>
		<g>
			<path class="st3" d="M29.15,39.57c0.39-0.22,0.77-0.43,1.16-0.65c0.42-0.24,0.04-0.88-0.38-0.65c-0.39,0.22-0.77,0.43-1.16,0.65
				C28.35,39.16,28.72,39.81,29.15,39.57L29.15,39.57z"/>
		</g>
	</g>
	<g>
		<g>
			<path class="st3" d="M34.87,33.55c0.17,0.71,0.34,1.43,0.5,2.14c0.11,0.47,0.83,0.27,0.72-0.2c-0.17-0.71-0.34-1.43-0.5-2.14
				C35.48,32.88,34.76,33.08,34.87,33.55L34.87,33.55z"/>
		</g>
	</g>
	<g>
		<g>
			<path class="st3" d="M24.68,40.4c0.64,0.17,1.26,0.1,1.84-0.21c0.43-0.23,0.05-0.87-0.38-0.65c-0.41,0.22-0.82,0.26-1.26,0.14
				C24.41,39.55,24.22,40.27,24.68,40.4L24.68,40.4z"/>
		</g>
	</g>
	<g>
		<g>
			<path class="st3" d="M25.27,39.1c0.68-0.26,1.36-0.52,2.03-0.78c0.45-0.17,0.25-0.9-0.2-0.72c-0.68,0.26-1.36,0.52-2.03,0.78
				C24.63,38.55,24.82,39.27,25.27,39.1L25.27,39.1z"/>
		</g>
	</g>
	<g>
		<g>
			<path class="st3" d="M28.01,37.04c0.75,0.47,1.65,0.57,2.48,0.26c0.45-0.17,0.25-0.89-0.2-0.72c-0.65,0.25-1.31,0.19-1.9-0.19
				C27.98,36.14,27.6,36.79,28.01,37.04L28.01,37.04z"/>
		</g>
	</g>
	<g>
		<g>
			<path class="st4" d="M33.07,30.17c0.56,1.19,1.16,2.35,1.81,3.5c0.24,0.42,0.89,0.04,0.65-0.38c-0.65-1.14-1.26-2.31-1.81-3.5
				C33.52,29.35,32.87,29.73,33.07,30.17L33.07,30.17z"/>
		</g>
	</g>
	<g>
		<g>
			<path class="st4" d="M34.96,33.22c-0.58,0.57-1.25,0.96-2.03,1.19c-0.46,0.13-0.27,0.86,0.2,0.72c0.9-0.26,1.69-0.73,2.36-1.38
				C35.83,33.42,35.3,32.89,34.96,33.22L34.96,33.22z"/>
		</g>
	</g>
	<g>
		<g>
			<path class="st4" d="M35.19,34.34c0.06,0.45,0.15,0.86,0.33,1.28c0.18,0.44,0.91,0.25,0.72-0.2c-0.15-0.35-0.25-0.7-0.3-1.08
				C35.88,33.86,35.13,33.86,35.19,34.34L35.19,34.34z"/>
		</g>
	</g>
	<g>
		<g>
			<path class="st4" d="M35.19,34.1c-0.68,0.97-1.55,1.76-2.56,2.37c-0.41,0.25-0.04,0.9,0.38,0.65c1.13-0.67,2.08-1.56,2.83-2.63
				C36.11,34.08,35.46,33.71,35.19,34.1L35.19,34.1z"/>
		</g>
	</g>
	<g>
		<g>
			<path class="st4" d="M35.21,34.99c-0.11,0.24-0.24,0.42-0.46,0.56c-0.41,0.26-0.03,0.91,0.38,0.65c0.33-0.21,0.58-0.48,0.73-0.83
				C36.05,34.93,35.41,34.55,35.21,34.99L35.21,34.99z"/>
		</g>
	</g>
	<g>
		<g>
			<path class="st4" d="M35.52,35.19c-0.15,0.18-0.3,0.3-0.51,0.41c-0.43,0.21-0.05,0.86,0.38,0.65c0.26-0.13,0.47-0.3,0.66-0.52
				C36.35,35.34,35.82,34.81,35.52,35.19L35.52,35.19z"/>
		</g>
	</g>
	<g>
		<g>
			<path class="st4" d="M35.64,35.32c-0.37,0.24-0.73,0.47-1.1,0.71c-0.4,0.26-0.03,0.91,0.38,0.65c0.37-0.24,0.73-0.47,1.1-0.71
				C36.42,35.7,36.04,35.05,35.64,35.32L35.64,35.32z"/>
		</g>
	</g>
	<g>
		<g>
			<path class="st4" d="M35.25,34.45c0.08,0.41,0.16,0.83,0.24,1.24c0.09,0.47,0.81,0.27,0.72-0.2c-0.08-0.41-0.16-0.83-0.24-1.24
				C35.88,33.78,35.15,33.98,35.25,34.45L35.25,34.45z"/>
		</g>
	</g>
	<g>
		<g>
			<path class="st4" d="M27.52,37.3c1.43,0.58,2.95,0.68,4.45,0.33c0.47-0.11,0.27-0.83-0.2-0.72c-1.38,0.33-2.74,0.2-4.05-0.33
				C27.27,36.39,27.08,37.12,27.52,37.3L27.52,37.3z"/>
		</g>
	</g>
	<g>
		<g>
			<path class="st4" d="M27.9,36.6c0.62,0.2,1.25,0.3,1.89,0.28c0.48-0.01,0.48-0.76,0-0.75c-0.59,0.02-1.14-0.07-1.69-0.25
				C27.64,35.72,27.44,36.44,27.9,36.6L27.9,36.6z"/>
		</g>
	</g>
	<g>
		<g>
			<path class="st4" d="M29.83,36.87c0.4-0.09,0.81-0.17,1.21-0.26c0.47-0.1,0.27-0.82-0.2-0.72c-0.4,0.09-0.81,0.17-1.21,0.26
				C29.16,36.25,29.36,36.97,29.83,36.87L29.83,36.87z"/>
		</g>
	</g>
	<g>
		<g>
			<path class="st4" d="M21.61,40.16c0.81-0.17,1.57-0.45,2.29-0.84c0.42-0.23,0.05-0.88-0.38-0.65c-0.67,0.36-1.37,0.62-2.11,0.77
				C20.93,39.53,21.13,40.26,21.61,40.16L21.61,40.16z"/>
		</g>
	</g>
	<g>
		<g>
			<path class="st4" d="M24.9,38.23c0.36,0.27,0.8,0.18,1.2,0.09c0.55-0.13,1.07-0.32,1.59-0.54c0.44-0.19,0.06-0.84-0.38-0.65
				c-0.34,0.15-0.69,0.28-1.05,0.38c-0.27,0.08-0.74,0.27-0.99,0.08C24.89,37.29,24.52,37.94,24.9,38.23L24.9,38.23z"/>
		</g>
	</g>
	<g>
		<g>
			<path class="st4" d="M23.61,40.41c0.73-0.42,1.5-0.74,2.3-0.99c0.46-0.14,0.26-0.86-0.2-0.72c-0.87,0.26-1.69,0.62-2.48,1.06
				C22.81,40.01,23.19,40.65,23.61,40.41L23.61,40.41z"/>
		</g>
	</g>
	<g>
		<g>
			<path class="st4" d="M23.67,40.51c0.97,0.17,1.64-0.43,2.53-0.66c0.47-0.12,0.27-0.85-0.2-0.72c-0.69,0.18-1.39,0.79-2.13,0.66
				C23.4,39.7,23.19,40.42,23.67,40.51L23.67,40.51z"/>
		</g>
	</g>
	<g>
		<g>
			<path class="st4" d="M26.4,38.96c0.39,0.29,0.81,0.17,1.22-0.01c0.63-0.28,1.26-0.58,1.89-0.86c0.44-0.2,0.06-0.85-0.38-0.65
				c-0.38,0.17-0.75,0.35-1.13,0.52c-0.27,0.12-0.92,0.57-1.22,0.36C26.39,38.03,26.01,38.68,26.4,38.96L26.4,38.96z"/>
		</g>
	</g>
	<g>
		<g>
			<path class="st4" d="M26.91,38.91c0.45-0.2,0.89-0.39,1.34-0.59c0.44-0.19,0.06-0.84-0.38-0.65c-0.45,0.2-0.89,0.39-1.34,0.59
				C26.09,38.46,26.47,39.11,26.91,38.91L26.91,38.91z"/>
		</g>
	</g>
	<g>
		<g>
			<path class="st4" d="M25.85,40.88c0.71,0.14,1.52-0.49,2.13-0.79c0.43-0.22,0.05-0.86-0.38-0.65c-0.26,0.13-0.51,0.26-0.77,0.38
				c-0.19,0.09-0.57,0.38-0.78,0.33C25.58,40.07,25.38,40.79,25.85,40.88L25.85,40.88z"/>
		</g>
	</g>
	<g>
		<g>
			<path class="st4" d="M25.76,40.84c0.48,0,0.48-0.75,0-0.75C25.28,40.09,25.28,40.84,25.76,40.84L25.76,40.84z"/>
		</g>
	</g>
	<g>
		<g>
			<path class="st4" d="M25.99,40.79c0.74-0.31,1.49-0.62,2.23-0.93c0.44-0.18,0.25-0.91-0.2-0.72c-0.74,0.31-1.49,0.62-2.23,0.93
				C25.35,40.25,25.54,40.98,25.99,40.79L25.99,40.79z"/>
		</g>
	</g>
	<g>
		<g>
			<path class="st4" d="M26.74,40.4c0.64-0.27,1.29-0.53,1.93-0.8c0.44-0.18,0.25-0.91-0.2-0.72c-0.64,0.27-1.29,0.53-1.93,0.8
				C26.1,39.86,26.29,40.59,26.74,40.4L26.74,40.4z"/>
		</g>
	</g>
	<g>
		<g>
			<path class="st4" d="M26.38,40.6c1.14-0.71,2.33-1.26,3.62-1.64c0.46-0.14,0.26-0.86-0.2-0.72c-1.34,0.4-2.61,0.98-3.8,1.72
				C25.59,40.21,25.97,40.86,26.38,40.6L26.38,40.6z"/>
		</g>
	</g>
	<g>
		<g>
			<path class="st4" d="M28.91,39.68c0.7-0.36,1.39-0.73,2.09-1.09c0.43-0.22,0.05-0.87-0.38-0.65c-0.7,0.36-1.39,0.73-2.09,1.09
				C28.11,39.26,28.49,39.91,28.91,39.68L28.91,39.68z"/>
		</g>
	</g>
	<g>
		<g>
			<path class="st4" d="M29.82,39.03c0.42-0.18,0.84-0.36,1.26-0.53c0.44-0.19,0.06-0.83-0.38-0.65c-0.42,0.18-0.84,0.36-1.26,0.53
				C29,38.57,29.38,39.22,29.82,39.03L29.82,39.03z"/>
		</g>
	</g>
	<g>
		<g>
			<path class="st4" d="M28.93,39.29c0.49-0.22,0.94-0.49,1.37-0.81c0.38-0.29,0.01-0.94-0.38-0.65c-0.43,0.32-0.88,0.59-1.37,0.81
				C28.11,38.84,28.49,39.49,28.93,39.29L28.93,39.29z"/>
		</g>
	</g>
	<g>
		<g>
			<path class="st4" d="M29.1,38.28c0.19,0,0.39-0.01,0.58-0.01c0.48-0.01,0.48-0.76,0-0.75c-0.19,0-0.39,0.01-0.58,0.01
				C28.62,37.54,28.62,38.29,29.1,38.28L29.1,38.28z"/>
		</g>
	</g>
	<g>
		<g>
			<path class="st4" d="M24.68,38.99c0.48,0,0.48-0.75,0-0.75C24.2,38.24,24.2,38.99,24.68,38.99L24.68,38.99z"/>
		</g>
	</g>
	<g>
		<g>
			<path class="st3" d="M22.49,40.08c0.43,0.12,0.8,0.02,1.21-0.14c0.52-0.2,1.03-0.39,1.55-0.59c0.45-0.17,0.25-0.9-0.2-0.72
				c-0.4,0.15-0.79,0.3-1.19,0.45c-0.35,0.13-0.79,0.39-1.17,0.28C22.23,39.22,22.03,39.95,22.49,40.08L22.49,40.08z"/>
		</g>
	</g>
	<g>
		<g>
			<path class="st3" d="M25.15,40.42c1.4-0.14,2.75-1.13,3.99-1.76c0.43-0.22,0.05-0.87-0.38-0.65c-0.58,0.3-1.16,0.59-1.74,0.89
				c-0.59,0.3-1.2,0.7-1.87,0.77C24.67,39.72,24.67,40.47,25.15,40.42L25.15,40.42z"/>
		</g>
	</g>
	<g>
		<g>
			<path class="st3" d="M25.98,38.67c0.51,0.59,1.24,0.69,1.94,0.39c0.44-0.19,0.06-0.84-0.38-0.65c-0.4,0.17-0.76,0.04-1.03-0.27
				C26.19,37.77,25.66,38.31,25.98,38.67L25.98,38.67z"/>
		</g>
	</g>
	<g>
		<g>
			<path class="st3" d="M24.63,38.13c0.8,0.58,1.82,0.63,2.69,0.19c0.43-0.22,0.05-0.86-0.38-0.65c-0.64,0.32-1.36,0.23-1.93-0.19
				C24.62,37.2,24.24,37.85,24.63,38.13L24.63,38.13z"/>
		</g>
	</g>
	<g>
		<g>
			<path class="st3" d="M24.13,37.95c0.94,0.84,2.22,0.96,3.29,0.29c0.41-0.26,0.03-0.9-0.38-0.65c-0.78,0.49-1.69,0.44-2.39-0.17
				C24.3,37.1,23.77,37.63,24.13,37.95L24.13,37.95z"/>
		</g>
	</g>
	<g>
		<g>
			<path class="st4" d="M23.66,40.46c0.76-0.35,1.53-0.69,2.29-1.04c0.44-0.2,0.06-0.85-0.38-0.65c-0.76,0.35-1.53,0.69-2.29,1.04
				C22.84,40.01,23.22,40.66,23.66,40.46L23.66,40.46z"/>
		</g>
	</g>
	<g>
		<g>
			<path class="st4" d="M21.9,39.88c0.48,0,0.48-0.75,0-0.75C21.42,39.13,21.42,39.88,21.9,39.88L21.9,39.88z"/>
		</g>
	</g>
	<g>
		<g>
			<path class="st4" d="M21.91,40.03c1.06-0.27,2.07-0.64,3.05-1.12c0.43-0.21,0.05-0.86-0.38-0.65c-0.92,0.45-1.87,0.8-2.87,1.05
				C21.25,39.42,21.45,40.15,21.91,40.03L21.91,40.03z"/>
		</g>
	</g>
	<g>
		<g>
			<path class="st4" d="M23.65,38.35c0.28,0.2,0.58,0.34,0.92,0.44c0.47,0.13,0.66-0.59,0.2-0.72c-0.28-0.08-0.51-0.19-0.74-0.36
				C23.64,37.42,23.26,38.07,23.65,38.35L23.65,38.35z"/>
		</g>
	</g>
	<g>
		<g>
			<path class="st4" d="M24.77,40.39c0.52-0.29,1.03-0.57,1.55-0.86c0.42-0.23,0.04-0.88-0.38-0.65c-0.52,0.29-1.03,0.57-1.55,0.86
				C23.97,39.97,24.35,40.62,24.77,40.39L24.77,40.39z"/>
		</g>
	</g>
	<g>
		<g>
			<path class="st4" d="M24.76,40.4c0.62-0.22,1.22-0.48,1.81-0.79c0.43-0.22,0.05-0.87-0.38-0.65c-0.53,0.27-1.07,0.51-1.63,0.71
				C24.11,39.84,24.31,40.57,24.76,40.4L24.76,40.4z"/>
		</g>
	</g>
	<g>
		<g>
			<path class="st4" d="M25.71,40.86c0.65-0.04,1.24-0.23,1.78-0.6c0.4-0.27,0.02-0.92-0.38-0.65c-0.43,0.29-0.88,0.46-1.4,0.5
				C25.23,40.15,25.23,40.9,25.71,40.86L25.71,40.86z"/>
		</g>
	</g>
	<g>
		<g>
			<path class="st4" d="M26.14,40.76c0.99-0.49,1.97-0.98,2.96-1.48c0.43-0.22,0.05-0.86-0.38-0.65c-0.99,0.49-1.97,0.98-2.96,1.48
				C25.33,40.33,25.71,40.98,26.14,40.76L26.14,40.76z"/>
		</g>
	</g>
	<g>
		<g>
			<path class="st4" d="M28.76,39.41c0.54-0.34,1.08-0.68,1.61-1.02c0.41-0.26,0.03-0.91-0.38-0.65c-0.54,0.34-1.08,0.68-1.61,1.02
				C27.97,39.02,28.35,39.67,28.76,39.41L28.76,39.41z"/>
		</g>
	</g>
	<g>
		<g>
			<path class="st3" d="M23.99,38.01c0.56,0.33,1.16,0.47,1.81,0.39c0.47-0.05,0.48-0.81,0-0.75c-0.52,0.06-0.97-0.02-1.43-0.29
				C23.96,37.12,23.58,37.77,23.99,38.01L23.99,38.01z"/>
		</g>
	</g>
	<g>
		<g>
			<path class="st3" d="M25.87,38.8c0.28,0.11,0.57,0.23,0.85,0.34c0.45,0.18,0.64-0.55,0.2-0.72c-0.28-0.11-0.57-0.23-0.85-0.34
				C25.62,37.9,25.43,38.62,25.87,38.8L25.87,38.8z"/>
		</g>
	</g>
	<g>
		<g>
			<path class="st4" d="M23.84,37.94c0.63,0.24,1.27,0.28,1.93,0.13c0.47-0.11,0.27-0.83-0.2-0.72c-0.53,0.12-1.02,0.07-1.53-0.13
				C23.59,37.04,23.4,37.77,23.84,37.94L23.84,37.94z"/>
		</g>
	</g>
	<g>
		<g>
			<path class="st4" d="M24.43,37.75c0.95,0.11,1.88,0.05,2.81-0.16c0.47-0.11,0.27-0.83-0.2-0.72c-0.87,0.2-1.73,0.24-2.61,0.14
				C23.95,36.94,23.95,37.69,24.43,37.75L24.43,37.75z"/>
		</g>
	</g>
	<g>
		<g>
			<path class="st4" d="M26.12,38.72c0.5,0.28,1.04,0.34,1.6,0.17c0.46-0.14,0.26-0.87-0.2-0.72c-0.36,0.11-0.68,0.09-1.02-0.09
				C26.08,37.84,25.7,38.49,26.12,38.72L26.12,38.72z"/>
		</g>
	</g>
	<g>
		<g>
			<path class="st4" d="M26.98,38.98c0.36,0.14,0.69,0.03,1.03-0.12c0.48-0.21,0.95-0.43,1.43-0.65c0.44-0.2,0.06-0.85-0.38-0.65
				c-0.3,0.14-0.6,0.27-0.89,0.41c-0.29,0.13-0.67,0.41-0.99,0.28C26.73,38.09,26.53,38.81,26.98,38.98L26.98,38.98z"/>
		</g>
	</g>
	<g>
		<g>
			<path class="st4" d="M24.58,38.1c0.91,0.4,1.73,0.06,2.55-0.4c0.42-0.23,0.04-0.88-0.38-0.65c-0.53,0.3-1.17,0.67-1.79,0.4
				C24.52,37.26,24.14,37.91,24.58,38.1L24.58,38.1z"/>
		</g>
	</g>
	<g>
		<g>
			<path class="st4" d="M26.69,38.47c0.41-0.04,0.77-0.15,1.13-0.33c0.43-0.22,0.05-0.87-0.38-0.65c-0.24,0.12-0.48,0.2-0.75,0.23
				C26.21,37.77,26.21,38.52,26.69,38.47L26.69,38.47z"/>
		</g>
	</g>
	<g>
		<g>
			<path class="st4" d="M27.23,38.21c0.3-0.02,0.59-0.04,0.89-0.06c0.48-0.03,0.48-0.78,0-0.75c-0.3,0.02-0.59,0.04-0.89,0.06
				C26.75,37.49,26.74,38.24,27.23,38.21L27.23,38.21z"/>
		</g>
	</g>
	<g>
		<g>
			<path class="st4" d="M25.5,39.63c0.1-0.08,0.19-0.16,0.29-0.24c0.37-0.31-0.16-0.84-0.53-0.53c-0.1,0.08-0.19,0.16-0.29,0.24
				C24.59,39.41,25.13,39.94,25.5,39.63L25.5,39.63z"/>
		</g>
	</g>
	<g>
		<g>
			<path class="st4" d="M24,38.03c0.6,0.25,1.22,0.28,1.85,0.09c0.46-0.13,0.27-0.86-0.2-0.72c-0.51,0.15-0.96,0.11-1.45-0.09
				C23.75,37.12,23.56,37.85,24,38.03L24,38.03z"/>
		</g>
	</g>
	<g>
		<g>
			<path class="st4" d="M26.43,38.83c0.71,0.41,1.55,0.29,2.09-0.33c0.31-0.36-0.21-0.9-0.53-0.53c-0.33,0.38-0.74,0.47-1.18,0.22
				C26.39,37.94,26.01,38.59,26.43,38.83L26.43,38.83z"/>
		</g>
	</g>
	<g>
		<g>
			<path class="st4" d="M28.01,38.9c0.31-0.14,0.62-0.29,0.93-0.43c0.44-0.2,0.06-0.85-0.38-0.65c-0.31,0.14-0.62,0.29-0.93,0.43
				C27.19,38.45,27.57,39.1,28.01,38.9L28.01,38.9z"/>
		</g>
	</g>
	<g>
		<g>
			<path class="st4" d="M28.53,39.61c0.16-0.18,0.32-0.33,0.52-0.45c0.41-0.25,0.03-0.9-0.38-0.65c-0.26,0.16-0.48,0.34-0.67,0.57
				C27.68,39.45,28.21,39.98,28.53,39.61L28.53,39.61z"/>
		</g>
	</g>
	<g>
		<g>
			<path class="st4" d="M35.22,34.43c0.18,0.44,0.31,0.88,0.39,1.34c0.08,0.47,0.81,0.27,0.72-0.2c-0.08-0.46-0.21-0.91-0.39-1.34
				C35.76,33.79,35.03,33.98,35.22,34.43L35.22,34.43z"/>
		</g>
	</g>
	<g>
		<g>
			<path class="st4" d="M34.8,33.4c0.2,0.45,0.33,0.93,0.39,1.42c0.05,0.47,0.8,0.48,0.75,0c-0.07-0.63-0.23-1.22-0.49-1.8
				C35.25,32.59,34.61,32.97,34.8,33.4L34.8,33.4z"/>
		</g>
	</g>
	<g>
		<g>
			<path class="st4" d="M35.51,35.33c-0.36,0.38-0.77,0.66-1.27,0.83c-0.46,0.15-0.26,0.88,0.2,0.72c0.62-0.21,1.15-0.54,1.6-1.02
				C36.37,35.51,35.84,34.98,35.51,35.33L35.51,35.33z"/>
		</g>
	</g>
	<g>
		<g>
			<path class="st4" d="M34.37,36.99c0.69-0.14,1.29-0.48,1.77-0.99c0.33-0.35-0.2-0.88-0.53-0.53c-0.4,0.42-0.87,0.68-1.44,0.8
				C33.7,36.37,33.9,37.09,34.37,36.99L34.37,36.99z"/>
		</g>
	</g>
	<g>
		<g>
			<path class="st4" d="M35.29,48.57c1.95,1.17,4.07,1.84,6.34,2.04c0.48,0.04,0.48-0.71,0-0.75c-2.14-0.18-4.12-0.83-5.96-1.93
				C35.25,47.68,34.87,48.32,35.29,48.57L35.29,48.57z"/>
		</g>
	</g>
	<g>
		<g>
			<path class="st4" d="M35.2,47.94c-0.11,0.09-0.22,0.17-0.32,0.26c-0.38,0.3,0.16,0.83,0.53,0.53c0.11-0.09,0.22-0.17,0.32-0.26
				C36.11,48.17,35.58,47.64,35.2,47.94L35.2,47.94z"/>
		</g>
	</g>
	<g>
		<g>
			<path class="st4" d="M34.92,48.85c0.83,0.53,1.71,0.95,2.64,1.26c0.46,0.15,0.66-0.57,0.2-0.72c-0.87-0.29-1.69-0.69-2.46-1.18
				C34.89,47.94,34.52,48.59,34.92,48.85L34.92,48.85z"/>
		</g>
	</g>
	<g>
		<g>
			<path class="st4" d="M35.15,48.63c-0.21,0.19-0.41,0.39-0.62,0.58c-0.35,0.33,0.18,0.86,0.53,0.53c0.21-0.19,0.41-0.39,0.62-0.58
				C36.03,48.83,35.5,48.3,35.15,48.63L35.15,48.63z"/>
		</g>
	</g>
	<g>
		<g>
			<path class="st4" d="M34.48,49.72c0.92,0.73,1.97,1.2,3.13,1.38c0.47,0.07,0.68-0.65,0.2-0.72c-1.03-0.16-1.98-0.54-2.8-1.19
				C34.63,48.89,34.1,49.42,34.48,49.72L34.48,49.72z"/>
		</g>
	</g>
	<g>
		<g>
			<path class="st4" d="M35.31,49.7c0.74,0.54,1.57,0.91,2.46,1.09c0.47,0.1,0.67-0.62,0.2-0.72c-0.84-0.17-1.59-0.51-2.28-1.02
				C35.3,48.76,34.92,49.41,35.31,49.7L35.31,49.7z"/>
		</g>
	</g>
	<g>
		<g>
			<path class="st4" d="M35.87,50.55c2.06,1.03,4.22,1.68,6.5,1.96c0.48,0.06,0.47-0.69,0-0.75c-2.15-0.27-4.18-0.89-6.12-1.86
				C35.82,49.69,35.44,50.34,35.87,50.55L35.87,50.55z"/>
		</g>
	</g>
	<g>
		<g>
			<path class="st4" d="M41.27,50.46c0.32,0.63,0.63,1.26,0.95,1.89c0.22,0.43,0.86,0.05,0.65-0.38c-0.32-0.63-0.63-1.26-0.95-1.89
				C41.7,49.65,41.05,50.03,41.27,50.46L41.27,50.46z"/>
		</g>
	</g>
	<g>
		<g>
			<path class="st4" d="M37.68,50.44c0.95,0.48,1.93,0.88,2.95,1.18c0.46,0.14,0.66-0.58,0.2-0.72c-0.96-0.29-1.88-0.65-2.77-1.11
				C37.62,49.58,37.24,50.22,37.68,50.44L37.68,50.44z"/>
		</g>
	</g>
	<g>
		<g>
			<path class="st4" d="M37.4,50.79c0.38,0.17,0.76,0.34,1.14,0.51c0.44,0.2,0.82-0.45,0.38-0.65c-0.38-0.17-0.76-0.34-1.14-0.51
				C37.35,49.95,36.96,50.59,37.4,50.79L37.4,50.79z"/>
		</g>
	</g>
	<g>
		<g>
			<path class="st4" d="M38.38,50.5c0.51,0.13,1.02,0.26,1.53,0.4c0.42,0.11,1.01,0.17,1.26,0.57c0.25,0.41,0.9,0.03,0.65-0.38
				c-0.26-0.42-0.65-0.62-1.11-0.76c-0.7-0.21-1.42-0.37-2.12-0.55C38.12,49.66,37.92,50.38,38.38,50.5L38.38,50.5z"/>
		</g>
	</g>
	<g>
		<g>
			<path class="st4" d="M40.64,51.37c0.32,0.21,0.64,0.41,0.96,0.62c0.41,0.26,0.78-0.39,0.38-0.65c-0.32-0.21-0.64-0.41-0.96-0.62
				C40.62,50.46,40.24,51.11,40.64,51.37L40.64,51.37z"/>
		</g>
	</g>
</g>
</svg>
