<?xml version="1.0" encoding="utf-8"?>
<!-- Generator: Adobe Illustrator 23.0.3, SVG Export Plug-In . SVG Version: 6.00 Build 0)  -->
<svg version="1.1" id="Calque_1" xmlns="http://www.w3.org/2000/svg" xmlns:xlink="http://www.w3.org/1999/xlink" x="0px" y="0px"
	 viewBox="0 0 60 60" style="enable-background:new 0 0 60 60;" xml:space="preserve">
<g>
	<g>
		<path d="M45,9.24C43.27,2.09,29.74-1.77,28.96,7.63c0.63-0.48,1.27-0.96,1.9-1.45c-5.18-1.32-20.2-0.09-14.99,8.9
			c0.68-0.68,1.37-1.37,2.05-2.05C12.41,9.74-3.48,16.89,3.01,24.36c-0.26-0.29,2.18,2.02,2.01,1.47c0.04,0.14-0.42,0.49-1.01,1.26
			c-1.37,1.78-2.98,3.71-2.71,6.13c0.49,4.45,5.36,5.28,8.95,5.44c-0.48-0.63-0.96-1.27-1.45-1.9c-0.9,3.99-4.06,10.24-1.1,14.1
			c2.32,3.03,5.64,1.23,8.01-0.65c-0.84-0.22-1.67-0.44-2.51-0.66c1.64,3.97,4.65,7.04,9,7.89c3.58,0.71,6.97-0.49,7.93-4.21
			c-0.91,0.12-1.83,0.24-2.74,0.36c2.82,4.68,8.21,6.07,13.25,4.08c4.48-1.77,7.56-6.39,4.35-10.78c-0.43,0.75-0.86,1.5-1.3,2.26
			c4.49-0.49,10-1.28,12.34-5.76c0.9-1.72,1.06-3.59,0.77-5.49c-0.27-1.71-1.1-3.09-0.96-4.86c0.1-1.24,0.83-2.51,0.96-3.8
			c0.2-1.98-0.07-3.99-1.2-5.67c-0.58-0.86-1.29-1.16-1.87-1.87c-1.62-1.97-1.46-3.01-1.65-5.32c-0.35-4.14-3.39-6.6-7.45-6.68
			c-1.93-0.04-1.93,2.96,0,3c7.36,0.14,2.96,6.69,4.9,9.7c0.28,0.43,0.82,0.6,1.1,0.99c0.29,0.24,0.63,0.42,1.01,0.51
			c2.01,1.77,2.68,3.72,2.01,5.83c-0.33,2.63-1.13,3.45-0.65,6c0.68,3.58,2.03,5.89-1.96,8.57c-2.03,1.37-5.05,1.6-7.35,1.85
			c-1,0.11-2.04,1.24-1.3,2.26c-0.6,2-1.2,4-1.8,6.01c-1.41,0.85-2.92,1.16-4.53,0.92c-2.69,0-4.65-0.86-6.09-3.26
			c-0.65-1.09-2.41-0.91-2.74,0.36c-1.71,6.61-10.15-1.26-11.15-3.68c-0.45-1.1-1.56-1.41-2.51-0.66c-3.31,0.29-4.58-0.65-3.82-2.83
			c0.08-1.01,0.29-2,0.63-2.95c0.4-1.59,0.93-3.14,1.3-4.75c0.22-0.98-0.44-1.86-1.45-1.9c-1.74,0.33-2.86-0.52-3.36-2.53
			c-2.06-1.16-2.42-2.32-1.08-3.49c0.26-0.73,1.13-1.39,1.5-2.08c0.68-1.25,0.71-1.68,0.73-2.94c0-0.32-0.58-0.65-0.65-0.91
			c-0.1-0.08-0.2-0.16-0.3-0.23c-1.12-0.34-1.19-1.33-0.21-2.99c0.18-3.57,1.22-3.63,4.32-4.55c1.67-0.5,3.57-1.28,5.2-0.3
			c1.3,0.77,2.8-0.76,2.05-2.05c0.46-1.33,0.92-2.66,1.38-3.99c1.12-0.58,2.3-0.9,3.55-0.96c2.31-0.33,4.41-0.11,6.67,0.46
			c1.01,0.26,1.82-0.47,1.9-1.45c1.54-2.51,3.5-3.22,5.87-2.11c2.32,0.68,3.75,2.18,4.28,4.52C42.56,11.91,45.46,11.12,45,9.24
			L45,9.24z"/>
	</g>
</g>
</svg>
