<?xml version="1.0" encoding="utf-8"?>
<!-- Generator: Adobe Illustrator 23.0.3, SVG Export Plug-In . SVG Version: 6.00 Build 0)  -->
<svg version="1.1" id="Calque_1" xmlns="http://www.w3.org/2000/svg" xmlns:xlink="http://www.w3.org/1999/xlink" x="0px" y="0px"
	 viewBox="0 0 60 60" style="enable-background:new 0 0 60 60;" xml:space="preserve">
<style type="text/css">
	.st0{fill:#6F00B4;}
</style>
<g>
	<g>
		<path class="st0" d="M35.34,8.43c-5.56-2.72-12.92-2.5-16.49,3.32c-3.44,5.61-0.29,11.73,5.31,14.13
			c5.22,2.23,12.35,2.34,16.28-2.45c4.25-5.17-0.63-12.48-5.54-15.02c-1.71-0.88-3.23,1.7-1.51,2.59c4.21,2.18,8.17,8.13,3.2,11.8
			c-2.98,2.2-6.85,1.85-10.15,0.74c-4.34-1.46-7.88-5.66-5-10.28c2.7-4.32,8.29-4.25,12.38-2.25C35.55,11.87,37.08,9.28,35.34,8.43
			L35.34,8.43z"/>
	</g>
</g>
<g>
	<g>
		<path class="st0" d="M28.51,27.49c-0.5,7.41-1.73,14.58-5.76,20.95c-1.04,1.64,1.56,3.14,2.59,1.51
			c4.3-6.79,5.64-14.56,6.17-22.47C31.64,25.56,28.64,25.57,28.51,27.49L28.51,27.49z"/>
	</g>
</g>
<g>
	<g>
		<path class="st0" d="M23.83,51.17c1.76-0.2,3.5-0.49,5.2-0.98c1.59-0.46,4.06-1.92,5.7-1.44c-0.35-0.35-0.7-0.7-1.05-1.05
			c0.28,1.12-0.42,2.81-0.81,3.88c0.35-0.35,0.7-0.7,1.05-1.05c-0.16-0.01-0.32-0.03-0.48-0.04c-1.91-0.23-1.9,2.77,0,3
			c0.47,0.06,0.81,0,1.27-0.06c0.53-0.08,0.89-0.59,1.05-1.05c0.63-1.76,2.17-6.11-0.73-6.63c-1.58-0.28-3.42,0.44-4.88,0.92
			c-2.08,0.69-4.14,1.25-6.33,1.5C21.94,48.39,21.92,51.39,23.83,51.17L23.83,51.17z"/>
	</g>
</g>
<g>
	<g>
		<path class="st0" d="M22.49,48.31c-1.19,0.66-2.37,1.32-3.56,1.97c-0.33,0.18-3.01,1.94-3.27,1.8c-1.71-0.89-3.23,1.7-1.51,2.59
			c1.64,0.85,2.89,0.07,4.38-0.75c1.83-1,3.66-2.01,5.49-3.03C25.69,49.97,24.18,47.38,22.49,48.31L22.49,48.31z"/>
	</g>
</g>
<g>
	<g>
		<path class="st0" d="M28.91,32.68c-1.61-0.23-3.22-0.43-4.85-0.54c-1.43-0.1-3.34-0.46-4.72,0.03c-0.98,0.35-1.32,1.08-1.49,2.04
			c-0.3,1.7-0.35,3.49-0.52,5.2c-0.19,1.92,2.81,1.91,3,0c0.09-0.95,0.19-1.91,0.28-2.86c0.04-0.45,0.01-1,0.14-1.43
			c-0.14-0.04-0.29-0.07-0.43-0.11c0.37,0,0.75,0,1.12,0.01c2.23,0.04,4.45,0.23,6.66,0.55C30,35.85,30.82,32.96,28.91,32.68
			L28.91,32.68z"/>
	</g>
</g>
<g>
	<g>
		<path class="st0" d="M29.43,35.32c1.03,2.09,2.32,3.98,3.86,5.73c0.69,0.79,1.84,0.43,2.36-0.3c2.43-3.42,5.91-5.87,7.09-10.08
			c0.52-1.86-2.37-2.66-2.89-0.8c-1.07,3.8-4.57,6.25-6.79,9.36c0.79-0.1,1.57-0.2,2.36-0.3c-1.37-1.57-2.47-3.26-3.39-5.13
			C31.16,32.08,28.57,33.59,29.43,35.32L29.43,35.32z"/>
	</g>
</g>
</svg>
