<?xml version="1.0" encoding="utf-8"?>
<!-- Generator: Adobe Illustrator 23.0.3, SVG Export Plug-In . SVG Version: 6.00 Build 0)  -->
<svg version="1.1" id="Calque_1" xmlns="http://www.w3.org/2000/svg" xmlns:xlink="http://www.w3.org/1999/xlink" x="0px" y="0px"
	 viewBox="0 0 60 60" style="enable-background:new 0 0 60 60;" xml:space="preserve">
<style type="text/css">
	.st0{fill:#1F91FF;}
</style>
<g>
	<g>
		<path class="st0" d="M29.65,10.16c-4.55-2.09-10.17,0.14-10.58,5.61c-0.52,6.91,5.9,9.38,11.56,10.04
			c5.92,0.69,12-1.85,10.72-8.83c-1.23-6.73-8.27-8.45-14.14-7.99c-1.91,0.15-1.93,3.15,0,3c2.78-0.22,5.75-0.24,8.21,1.29
			c4.16,2.59,4.21,8.83-1.21,9.58c-3.03,0.42-7-0.25-9.54-1.96c-4.19-2.84-2.49-10.87,3.46-8.13C29.87,13.55,31.4,10.96,29.65,10.16
			L29.65,10.16z"/>
	</g>
</g>
<g>
	<g>
		<path class="st0" d="M29.79,25.3c-0.87,4.61-0.04,10.89-3.65,14.45c-0.86,0.85-8.7,7.13-9.43,6.83c-1.78-0.74-2.56,2.16-0.8,2.89
			c1.34,0.56,2.86-0.51,3.96-1.21c2.48-1.57,4.88-3.61,7.18-5.42c5.37-4.22,4.48-10.67,5.63-16.74
			C33.04,24.21,30.15,23.41,29.79,25.3L29.79,25.3z"/>
	</g>
</g>
<g>
	<g>
		<path class="st0" d="M28.16,43.51c1.22,0,2.44,0,3.66,0c1.15,0,2.56-0.21,3.69,0.04c-0.3-0.23-0.6-0.46-0.9-0.69
			c0.27,0.42-0.04,1.86-0.1,2.28c-0.14,0.85-0.39,1.65-0.7,2.45c-0.69,1.8,2.21,2.59,2.89,0.8c0.67-1.75,1.91-5.8,0.27-7.35
			c-0.94-0.89-2.77-0.53-3.93-0.53c-1.63,0-3.26,0-4.89,0C26.23,40.51,26.22,43.51,28.16,43.51L28.16,43.51z"/>
	</g>
</g>
<g>
	<g>
		<path class="st0" d="M30.06,30.96c-0.84-0.54-1.68-1.08-2.53-1.59c-0.78-0.47-1.59-0.99-2.51-0.51c-0.83,0.44-1.42,1.56-1.97,2.27
			c-0.59,0.75-1.12,1.31-1.19,2.3c-0.13,1.93,2.87,1.92,3,0c-0.01,0.34,0.09,0.28,0.31-0.18c0.19-0.25,0.39-0.5,0.58-0.75
			c0.34-0.44,0.65-0.95,1.09-1.29c-0.49,0.13-0.97,0.26-1.46,0.39c1.08,0.32,2.22,1.34,3.17,1.95
			C30.17,34.61,31.68,32.01,30.06,30.96L30.06,30.96z"/>
	</g>
</g>
<g>
	<g>
		<path class="st0" d="M30.96,33.83c2.07,0.85,3.99,1.99,5.74,3.39c0.79,0.63,1.77,0.56,2.36-0.3c1.74-2.57,3.38-5.19,4.91-7.89
			c0.96-1.68-1.64-3.19-2.59-1.51c-1.53,2.7-3.17,5.32-4.91,7.89c0.79-0.1,1.57-0.2,2.36-0.3c-2.18-1.75-4.48-3.1-7.06-4.16
			C29.98,30.21,29.2,33.11,30.96,33.83L30.96,33.83z"/>
	</g>
</g>
</svg>
