<?xml version="1.0" encoding="utf-8"?>
<!-- Generator: Adobe Illustrator 23.0.3, SVG Export Plug-In . SVG Version: 6.00 Build 0)  -->
<svg version="1.1" id="Calque_1" xmlns="http://www.w3.org/2000/svg" xmlns:xlink="http://www.w3.org/1999/xlink" x="0px" y="0px"
	 viewBox="0 0 60 60" style="enable-background:new 0 0 60 60;" xml:space="preserve">
<style type="text/css">
	.st0{fill:#10BF00;}
</style>
<g>
	<g>
		<path class="st0" d="M7.24,52.05c1.06-2.95,3.76-4.79,6.24-6.49c1.58-1.08,0.09-3.68-1.51-2.59c-3.2,2.19-6.26,4.5-7.62,8.28
			C3.69,53.07,6.59,53.85,7.24,52.05L7.24,52.05z"/>
	</g>
</g>
<g>
	<g>
		<path class="st0" d="M4.31,53.73c0.55,1.07,1.62,1.59,2.22,2.59c0.42,0.71,1.34,0.94,2.05,0.54c3.59-2.01,7.83-2.96,9.93-6.84
			c0.92-1.7-1.67-3.21-2.59-1.51c-1.77,3.28-5.81,4.07-8.85,5.77c0.68,0.18,1.37,0.36,2.05,0.54c-0.6-1-1.7-1.58-2.22-2.59
			C6.01,50.5,3.42,52.01,4.31,53.73L4.31,53.73z"/>
	</g>
</g>
<g>
	<g>
		<path class="st0" d="M14.76,42.66c-0.83-1.28-1.62-2.58-2.34-3.92c-0.68-1.27-1.9-2.99-2.07-4.41c-0.23-1.89-3.23-1.92-3,0
			c0.2,1.66,1.13,3.28,1.88,4.76c0.88,1.75,1.87,3.44,2.94,5.08C13.22,45.78,15.82,44.28,14.76,42.66L14.76,42.66z"/>
	</g>
</g>
<g>
	<g>
		<path class="st0" d="M9.51,35.58c3.97-2.11,8.02-4.05,12.15-5.81c1.77-0.75,0.24-3.34-1.51-2.59c-4.14,1.76-8.19,3.69-12.15,5.81
			C6.29,33.9,7.8,36.49,9.51,35.58L9.51,35.58z"/>
	</g>
</g>
<g>
	<g>
		<path class="st0" d="M19.61,27.6c-1,1.67-2.32,3.08-3.94,4.16c-1.6,1.07-0.1,3.67,1.51,2.59c2.05-1.37,3.75-3.12,5.01-5.24
			C23.19,27.45,20.6,25.94,19.61,27.6L19.61,27.6z"/>
	</g>
</g>
<g>
	<g>
		<path class="st0" d="M17.16,50.4c1.13,1.49,3.05,2.09,4.69,2.88c1.86,0.9,3.63,1.72,5.7,1.95c1.92,0.21,1.9-2.79,0-3
			c-1.6-0.18-3.05-0.99-4.48-1.68c-0.89-0.43-2.76-0.91-3.33-1.66C18.6,47.36,15.99,48.86,17.16,50.4L17.16,50.4z"/>
	</g>
</g>
<g>
	<g>
		<path class="st0" d="M29.12,54.33c3.12-4.17,8.15-6.32,11.42-10.37c1.2-1.49-0.91-3.62-2.12-2.12c-3.43,4.25-8.6,6.57-11.89,10.98
			C25.38,54.36,27.98,55.86,29.12,54.33L29.12,54.33z"/>
	</g>
</g>
<g>
	<g>
		<path class="st0" d="M39.92,41.36c-1.4-0.41-2.69-0.06-4.08,0.22c-1.67,0.34-3.35,0.62-5.03,0.86c-1.9,0.26-1.09,3.15,0.8,2.89
			c1.29-0.18,2.57-0.38,3.85-0.62c1.11-0.21,2.56-0.78,3.67-0.46C40.98,44.8,41.77,41.91,39.92,41.36L39.92,41.36z"/>
	</g>
</g>
<g>
	<g>
		<path class="st0" d="M14.42,34.67c0.54,1.49,1.09,3.45,2.33,4.51c0.61,0.53,1.52,0.6,2.12,0c0.54-0.54,0.62-1.59,0-2.12
			c-0.82-0.7-1.21-2.2-1.56-3.19c-0.28-0.76-1.02-1.27-1.85-1.05C14.73,33.03,14.14,33.91,14.42,34.67L14.42,34.67z"/>
	</g>
</g>
<g>
	<g>
		<path class="st0" d="M30.75,42.73c-0.88,0.09-1.77,0.12-2.65,0.06c-0.46-0.03-0.91-0.08-1.36-0.17c-0.14-0.03-0.29-0.06-0.43-0.09
			c-0.39-0.16-0.37-0.04,0.08,0.36c-0.31-0.75-0.99-1.27-1.85-1.05c-0.71,0.19-1.36,1.1-1.05,1.85c1.05,2.52,4.99,2.26,7.26,2.03
			C32.66,45.54,32.68,42.54,30.75,42.73L30.75,42.73z"/>
	</g>
</g>
<g>
	<g>
		<path class="st0" d="M18.97,39.35c2.54-3.26,5.79-6.18,8.01-9.67c2.59-4.08,4.36-8.69,6.94-12.81c1.03-1.64-1.57-3.15-2.59-1.51
			c-2.34,3.72-4.07,7.7-6.22,11.51c-2.15,3.8-5.59,6.92-8.27,10.37C15.68,38.73,17.79,40.87,18.97,39.35L18.97,39.35z"/>
	</g>
</g>
<g>
	<g>
		<path class="st0" d="M33.06,17.47c3.64-1.43,7.32-2.71,11.09-3.75c3.33-0.92,6.65-1.49,9.66-3.25c1.67-0.97,0.16-3.57-1.51-2.59
			c-3.14,1.84-6.89,2.34-10.36,3.35c-3.28,0.96-6.5,2.1-9.68,3.35C30.48,15.28,31.26,18.18,33.06,17.47L33.06,17.47z"/>
	</g>
</g>
<g>
	<g>
		<path class="st0" d="M51.77,9.68c0.71,4.8-0.3,9.64-0.13,14.46c0.07,1.93,3.07,1.93,3,0c-0.18-5.12,0.79-10.15,0.03-15.25
			C54.38,6.98,51.49,7.79,51.77,9.68L51.77,9.68z"/>
	</g>
</g>
<g>
	<g>
		<path class="st0" d="M52.78,22.91c-4.9,2.02-9.87,3.71-14.05,7.06c-5.1,4.08-9.66,8.58-15.09,12.28
			c-1.59,1.08-0.09,3.68,1.51,2.59c4.27-2.91,8.27-6.11,12.1-9.58c5.01-4.53,10.14-6.91,16.32-9.47
			C55.34,25.07,54.57,22.17,52.78,22.91L52.78,22.91z"/>
	</g>
</g>
</svg>
